<svg width="359" height="355" viewBox="0 0 359 355" fill="none" xmlns="http://www.w3.org/2000/svg">
<g clip-path="url(#clip0_99_897)">
<path d="M25.2987 242.679C-5.67806 158.241 31.1922 85.0133 80.9994 47.8605C136.988 6.03657 209.506 3.80884 267.148 40.3868C296.615 59.071 318.68 84.5103 332.048 116.92C349.297 158.816 349.082 201.215 333.557 242.679C336.935 246.704 339.738 250.081 342.541 253.459C377.471 182.818 357.131 83.6479 279.006 30.6135C206.56 -18.7559 107.808 -8.04845 46.2134 60.5082C-11.4278 124.538 -7.47486 210.269 16.6022 252.956C19.2615 249.794 22.1364 246.416 25.2987 242.679ZM16.6741 284.431C16.6741 284.791 16.6022 285.15 16.6022 285.509C17.3928 286.012 18.1115 286.587 18.974 286.875C35.0014 293.702 51.1726 295.642 67.7031 288.743C70.3624 287.593 71.9436 287.953 74.0997 289.965C110.036 323.453 152.368 337.753 201.169 330.998C233.368 326.543 261.254 312.529 284.828 290.108C286.84 288.168 288.422 287.665 291.009 288.815C307.252 295.714 323.28 293.63 339.091 287.162C340.241 286.731 341.247 285.94 342.685 285.15C341.751 284.719 341.463 284.503 341.176 284.431C339.666 284 338.229 283.569 336.72 283.138C310.486 276.383 284.037 271.281 256.726 272.143C238.83 272.718 222.012 276.814 206.128 284.934C203.828 286.156 202.535 287.378 202.104 290.18C201.672 292.624 200.307 295.211 198.726 297.079C191.826 305.128 179.464 307.715 169.114 303.116C162.574 300.241 157.04 296.217 156.68 288.024C156.68 287.234 155.602 286.3 154.74 285.797C140.078 277.676 124.338 273.149 107.592 272.287C85.9586 271.137 64.6126 273.58 43.4823 278.179C34.4983 280.12 25.5862 282.347 16.6741 284.431ZM67.3438 197.55C69.6437 197.478 71.2248 197.478 72.7341 197.262C89.1928 194.747 105.436 195.681 121.391 200.352C145.972 207.467 165.377 221.049 176.517 244.835C177.451 246.919 178.458 248.931 179.68 251.446C180.829 248.859 181.764 246.775 182.698 244.763C187.298 234.99 193.191 226.151 201.6 219.324C224.456 200.855 250.905 194.388 279.797 196.472C283.534 196.759 287.272 197.119 291.584 197.478C288.997 189.07 286.625 181.309 284.181 173.188C288.997 173.188 293.165 173.188 297.837 173.188C287.272 158.241 277.066 143.725 266.788 129.209C266.645 129.281 266.501 129.424 266.357 129.496C270.454 140.994 274.622 152.492 278.719 164.134C236.674 165.571 201.241 178.434 179.751 217.959C170.336 199.274 156.321 185.764 138.066 176.494C119.954 167.368 100.62 164.062 80.2088 164.349C84.5211 152.492 88.6178 141.066 92.7864 129.712C92.5708 129.64 92.3552 129.496 92.1396 129.424C81.9337 143.94 71.7998 158.457 61.2346 173.476C66.1219 173.476 70.3624 173.476 75.034 173.476C72.3748 181.596 69.9311 189.286 67.3438 197.55ZM28.1736 224.57C29.8266 220.258 31.336 215.084 33.7077 210.341C35.0014 207.826 35.4327 205.598 35.0014 202.868C32.1265 186.411 32.3422 170.026 35.7201 153.642C42.7636 119.867 59.0066 91.1935 85.2399 68.7724C121.823 37.5123 164.227 26.5892 211.088 37.0811C256.367 47.1418 289.14 74.3058 310.055 115.411C324.358 143.509 329.245 173.332 323.783 204.592C323.567 205.598 323.423 206.892 323.854 207.754C326.37 213.288 329.029 218.821 331.401 223.779C349.728 169.667 331.832 93.2775 266.932 48.8665C206.56 7.61754 125.919 14.5163 71.7279 65.6105C18.3271 115.914 13.368 185.405 28.1736 224.57ZM289.5 297.51C287.919 298.876 286.409 300.241 284.9 301.535C283.319 302.828 281.809 304.193 280.228 305.415C244.795 332.795 204.835 344.149 160.202 339.19C142.09 337.178 124.913 332.004 108.598 323.956C95.3019 317.416 83.0118 309.439 72.0154 299.522C71.0811 298.66 69.2124 297.798 68.1344 298.157C63.8939 299.666 59.7972 301.606 55.6286 303.475C117.079 371.313 238.614 373.325 303.299 303.475C298.699 301.391 294.1 299.451 289.5 297.51ZM197.504 73.3716C193.982 85.0133 187.945 94.571 179.248 102.476C176.23 105.207 173.283 108.081 170.48 110.956C158.118 123.388 151.362 137.832 155.531 155.726C158.477 168.302 166.168 177.5 177.308 184.83C175.511 173.62 174.792 163.128 176.805 152.492C178.817 142 182.411 132.155 187.657 123.244C186.292 132.155 184.495 141.282 183.704 150.48C182.914 159.75 184.136 168.949 187.37 178.147C200.954 167.511 207.35 153.642 208.428 137.113C209.363 123.1 206.56 109.518 203.253 96.0801C201.313 88.4627 199.372 80.9171 197.504 73.3716ZM199.804 274.658C227.906 261.651 256.654 258.202 287.272 259.854C271.388 256.046 256.367 254.393 241.058 255.04C225.534 255.686 212.094 261.435 200.666 271.927C200.091 272.43 200.091 273.724 199.804 274.658ZM159.484 275.377C158.765 273.508 158.621 272.143 157.83 271.496C149.709 264.166 140.653 258.633 129.8 256.405C117.582 253.818 105.292 254.608 93.002 256.046C86.4617 256.836 79.9213 258.273 73.381 259.423C121.32 260.573 124.841 261.22 159.484 275.377ZM71.9436 104.847C98.3205 67.8382 133.107 47.2137 178.026 46.6388C222.874 46.1358 258.092 66.0416 285.259 100.895C259.673 64.4607 224.528 45.7765 179.895 44.986C129.944 44.1955 86.0304 75.3837 71.9436 104.847ZM192.616 283.353C184.351 277.389 171.845 278.682 166.599 283.641C174.145 294.205 187.873 290.755 192.616 283.353ZM324.142 252.309C317.745 231.325 311.349 210.269 304.952 189.286C304.737 188.639 304.305 187.992 303.802 187.561C301.215 185.692 298.627 183.968 295.321 181.74C298.843 195.753 302.149 209.12 305.527 222.702C304.88 222.773 304.521 222.845 304.233 222.773C303.443 222.63 302.58 222.414 301.79 222.199C285.762 217.959 269.519 215.659 252.845 217.599C221.94 221.192 195.707 232.69 179.32 260.86C178.889 259.854 178.601 258.848 178.026 257.986C171.342 247.063 162.646 238.152 151.649 231.612C127.285 217.096 100.908 214.294 73.381 218.821C66.6969 219.899 60.1566 221.48 53.2569 222.845C56.6348 209.191 60.0128 195.825 63.4627 182.027C60.5878 183.968 58.1442 185.477 55.8443 187.13C54.9818 187.776 54.1912 188.783 53.9037 189.789C49.0883 205.598 44.3448 221.336 39.5293 237.074C37.1576 244.763 34.7139 252.453 32.1265 260.789C34.9295 259.783 36.7982 259.064 38.6669 258.417C58.5035 251.159 79.1308 248.069 100.117 247.207C112.264 246.704 124.266 247.997 135.981 251.231C151.29 255.471 163.796 264.166 174.433 275.808C177.164 278.754 180.111 278.898 183.201 276.455C184.136 275.736 184.998 274.874 185.789 274.011C196.857 262.082 210.369 254.393 226.109 250.656C248.461 245.41 270.813 246.704 293.021 251.231C304.162 253.459 315.086 256.98 326.226 259.998C325.651 257.555 324.933 254.896 324.142 252.309ZM74.8903 240.452C80.2807 239.158 85.5992 237.577 91.0615 236.571C108.095 233.481 124.985 233.122 141.372 240.308C152.656 245.266 162.071 252.668 169.546 262.37C170.192 263.16 170.624 264.166 171.199 265.028C143.456 239.374 110.251 236.284 74.8903 240.452ZM188.017 265.316C206.56 235.996 244.436 227.085 284.397 241.098C249.18 235.924 216.406 240.452 188.017 265.316Z" fill="white"/>
<path d="M25.2987 242.679C22.1364 246.416 19.2615 249.794 16.6022 252.956C-7.47486 210.269 -11.4278 124.537 46.2134 60.4363C107.808 -8.04854 206.56 -18.756 279.006 30.5415C357.059 83.6478 377.399 182.818 342.541 253.387C339.738 250.081 336.935 246.703 333.557 242.607C349.082 201.143 349.297 158.744 332.048 116.848C318.68 84.4383 296.615 58.999 267.148 40.3148C209.578 3.73688 136.988 5.96462 80.9994 47.7885C31.1922 85.0851 -5.67806 158.313 25.2987 242.679Z" fill="#DC2F2F"/>
<path d="M16.6743 284.431C25.5864 282.347 34.4985 280.119 43.4106 278.179C64.5409 273.58 85.8869 271.137 107.52 272.286C124.266 273.149 140.006 277.676 154.668 285.797C155.459 286.228 156.537 287.234 156.609 288.024C156.968 296.217 162.574 300.241 169.043 303.115C179.392 307.715 191.682 305.128 198.654 297.079C200.307 295.139 201.672 292.623 202.032 290.18C202.463 287.449 203.757 286.156 206.057 284.934C221.94 276.814 238.83 272.718 256.654 272.143C283.966 271.28 310.415 276.383 336.648 283.138C338.157 283.497 339.595 284 341.104 284.431C341.391 284.503 341.679 284.719 342.613 285.15C341.176 285.94 340.17 286.659 339.02 287.162C323.208 293.63 307.18 295.714 290.937 288.815C288.35 287.737 286.769 288.168 284.756 290.108C261.182 312.529 233.368 326.542 201.097 330.998C152.296 337.753 109.964 323.524 74.028 289.965C71.8719 287.952 70.2907 287.593 67.6314 288.743C51.1009 295.642 34.9297 293.701 18.9023 286.874C18.0398 286.515 17.3211 285.94 16.5305 285.509C16.6024 285.15 16.6024 284.79 16.6743 284.431Z" fill="#DC2F2F"/>
<path d="M324.142 252.309C317.746 231.325 311.349 210.269 304.952 189.285C304.737 188.639 304.306 187.992 303.802 187.561C301.215 185.692 298.628 183.968 295.322 181.74C298.843 195.753 302.149 209.119 305.527 222.701C304.88 222.773 304.521 222.845 304.234 222.773C303.443 222.63 302.581 222.414 301.79 222.198C285.763 217.959 269.52 215.659 252.845 217.599C221.94 221.192 195.707 232.69 179.32 260.86C178.889 259.854 178.602 258.848 178.027 257.986C171.343 247.063 162.646 238.152 151.65 231.612C127.285 217.096 100.908 214.294 73.3812 218.821C66.6971 219.899 60.1567 221.48 53.257 222.845C56.635 209.191 60.013 195.825 63.4628 182.027C60.588 183.968 58.1443 185.477 55.8444 187.13C54.982 187.776 54.1914 188.782 53.9039 189.788C49.0885 205.598 44.3449 221.336 39.5295 237.074C37.1577 244.763 34.7141 252.452 32.1267 260.788C34.9297 259.782 36.7984 259.064 38.667 258.417C58.5037 251.159 79.1309 248.069 100.118 247.206C112.264 246.703 124.266 247.997 135.982 251.231C151.29 255.471 163.796 264.166 174.433 275.808C177.164 278.754 180.111 278.898 183.201 276.454C184.136 275.736 184.998 274.873 185.789 274.011C196.857 262.082 210.369 254.393 226.109 250.656C248.461 245.41 270.813 246.703 293.022 251.231C304.162 253.458 315.086 256.98 326.226 259.998C325.651 257.555 324.933 254.896 324.142 252.309ZM74.8905 240.451C80.2809 239.158 85.5994 237.577 91.0616 236.571C108.095 233.481 124.985 233.121 141.372 240.308C152.656 245.266 162.071 252.668 169.546 262.369C170.193 263.16 170.624 264.166 171.199 265.028C143.456 239.373 110.251 236.283 74.8905 240.451ZM188.017 265.316C206.56 235.996 244.436 227.085 284.397 241.098C249.18 235.924 216.406 240.451 188.017 265.316Z" fill="#DC2F2F"/>
<path d="M67.3438 197.55C69.9312 189.357 72.4467 181.668 74.9622 173.548C70.2906 173.548 66.0501 173.548 61.1628 173.548C71.6561 158.528 81.8619 144.012 92.0678 129.496C92.2834 129.568 92.499 129.712 92.7146 129.783C88.6179 141.21 84.4493 152.564 80.137 164.421C100.62 164.134 119.954 167.439 137.994 176.566C156.249 185.764 170.264 199.346 179.68 218.03C201.169 178.506 236.602 165.643 278.647 164.206C274.479 152.636 270.382 141.066 266.285 129.568C266.429 129.496 266.573 129.352 266.716 129.28C276.994 143.797 287.2 158.313 297.765 173.26C293.093 173.26 288.925 173.26 284.109 173.26C286.553 181.309 288.925 189.07 291.512 197.55C287.2 197.19 283.463 196.759 279.725 196.544C250.833 194.46 224.384 200.927 201.529 219.396C193.12 226.223 187.154 235.062 182.626 244.835C181.692 246.847 180.758 248.931 179.608 251.518C178.386 249.003 177.452 246.919 176.445 244.907C165.305 221.12 145.828 207.538 121.32 200.424C105.364 195.825 89.121 194.891 72.6623 197.334C71.153 197.478 69.6437 197.406 67.3438 197.55Z" fill="#DC2F2F"/>
<path d="M28.1736 224.57C13.368 185.405 18.3272 115.914 71.728 65.6103C125.919 14.5162 206.56 7.68922 266.86 48.9382C331.76 93.3491 349.585 169.739 331.329 223.851C328.957 218.893 326.298 213.359 323.783 207.826C323.351 206.964 323.567 205.67 323.711 204.664C329.173 173.404 324.286 143.581 309.983 115.483C289.069 74.3775 256.295 47.2135 211.016 37.1528C164.083 26.7327 121.679 37.584 85.168 68.8441C58.9348 91.2651 42.6917 119.938 35.7202 153.714C32.3422 170.026 32.1266 186.483 35.0015 202.939C35.5046 205.67 35.0015 207.826 33.7078 210.413C31.336 215.084 29.8267 220.258 28.1736 224.57Z" fill="#DC2F2F"/>
<path d="M289.5 297.51C294.1 299.45 298.627 301.463 303.299 303.403C238.614 373.253 117.079 371.241 55.6287 303.403C59.7972 301.606 63.8939 299.594 68.1344 298.085C69.1406 297.726 71.0092 298.588 72.0154 299.45C83.0118 309.367 95.3019 317.416 108.598 323.884C124.913 331.86 142.019 337.106 160.202 339.118C204.835 344.077 244.724 332.723 280.228 305.343C281.809 304.121 283.391 302.756 284.9 301.463C286.409 300.169 287.919 298.876 289.5 297.51Z" fill="#DC2F2F"/>
<path d="M199.804 274.658C200.091 273.724 200.091 272.43 200.666 271.855C212.094 261.363 225.462 255.614 241.058 254.968C256.367 254.321 271.46 255.974 287.272 259.782C256.654 258.13 227.906 261.651 199.804 274.658Z" fill="#DC2F2F"/>
<path d="M159.484 275.376C124.841 261.148 121.32 260.573 73.4529 259.351C79.9932 258.201 86.4617 256.764 93.0739 255.974C105.292 254.536 117.582 253.746 129.872 256.333C140.725 258.633 149.853 264.094 157.902 271.424C158.549 272.143 158.693 273.508 159.484 275.376Z" fill="#DC2F2F"/>
<path d="M71.9436 104.847C86.0305 75.3836 129.944 44.1953 179.895 45.0576C224.599 45.8481 259.673 64.5323 285.259 100.967C258.02 66.1133 222.875 46.1356 178.026 46.6386C133.107 47.2135 98.3206 67.838 71.9436 104.847Z" fill="#DC2F2F"/>
<path d="M192.616 283.353C187.873 290.755 174.145 294.276 166.599 283.641C171.846 278.682 184.351 277.389 192.616 283.353Z" fill="#DC2F2F"/>
<g clip-path="url(#clip1_99_897)">
<path d="M194.337 162.506C194.387 162.506 194.387 162.506 194.337 162.506V162.506ZM194.337 162.506C194.387 162.506 194.387 162.506 194.337 162.506V162.506ZM194.337 162.506C194.387 162.506 194.387 162.506 194.337 162.506V162.506ZM194.337 162.506C194.387 162.506 194.387 162.506 194.337 162.506V162.506ZM235.469 226.05C234.623 223.238 234.474 220.376 234.474 217.515C234.424 211.94 234.872 206.365 235.469 200.79C236.115 194.327 236.712 187.865 237.359 181.451C238.105 174.051 238.453 166.7 237.209 159.349C236.463 154.909 235.369 150.567 232.037 147.213C231.639 146.818 231.788 146.621 232.186 146.374C234.325 145.042 234.822 143.019 234.325 140.7C234.176 139.96 234.225 139.566 235.121 139.319C236.812 138.924 238.055 137.79 238.652 136.162C239.746 133.103 238.005 127.429 235.369 125.456C233.131 130.537 225.173 130.439 220.448 126.393C224.029 124.568 226.367 121.854 226.516 117.76C226.665 113.862 225.024 110.655 222.289 107.843C221.194 109.521 220.2 111.099 219.056 112.629C217.464 114.75 215.574 116.576 212.839 117.316C212.093 117.76 211.197 117.908 210.352 117.957C207.069 118.598 203.737 118.401 200.454 118.154C193.243 117.612 186.081 116.378 178.968 115.342C175.586 115.293 172.353 114.553 169.021 114.207C162.655 113.517 156.338 112.481 149.873 113.023C149.077 113.122 148.331 113.171 147.535 113.27C147.137 113.369 146.739 113.467 146.341 113.566C144.153 114.059 142.064 114.799 140.274 116.23C136.444 119.338 135.449 123.581 135.2 128.169C141.666 128.12 147.436 130.044 152.509 134.089C152.608 133.497 151.862 133.251 151.962 132.461C158.576 135.619 163.301 140.552 167.181 146.818C164.943 146.571 162.953 146.078 160.964 146.078C160.417 146.078 160.417 145.535 160.268 145.19C159.422 143.118 158.527 141.095 157.333 139.22C157.283 139.171 157.283 139.122 157.234 139.023C157.184 138.974 157.134 138.924 157.134 138.875C157.084 138.826 157.084 138.776 157.035 138.776L156.985 138.727C156.935 138.678 156.885 138.628 156.786 138.579C156.736 138.579 156.686 138.53 156.637 138.53C156.587 138.53 156.537 138.53 156.488 138.53H156.438C157.83 140.898 158.974 143.315 159.521 146.029C159.671 146.67 160.019 146.917 160.715 146.966C168.822 147.755 176.68 149.531 183.992 153.281C186.379 154.514 188.418 156.192 190.308 158.066C190.955 158.658 191.552 159.349 192.148 159.99C192.347 160.237 192.546 160.434 192.745 160.681C192.944 160.78 193.093 160.928 193.143 161.174C193.193 161.273 193.292 161.322 193.392 161.421C193.491 161.47 193.541 161.52 193.641 161.569C193.839 161.717 193.989 161.914 194.038 162.161V162.21H194.088C194.138 162.21 194.138 162.26 194.188 162.26C194.188 162.26 194.237 162.309 194.237 162.358C194.287 162.408 194.287 162.506 194.287 162.605C194.337 162.605 194.337 162.654 194.387 162.654C194.387 162.654 194.436 162.654 194.436 162.704C194.436 162.704 194.486 162.704 194.486 162.753C194.536 162.802 194.586 162.852 194.635 162.901C194.685 162.95 194.735 163.049 194.735 163.098C194.784 163.148 194.784 163.246 194.784 163.345C195.033 163.493 195.133 163.69 195.133 163.937C195.232 164.085 195.381 164.282 195.481 164.43C195.58 164.578 195.729 164.776 195.829 164.924C195.879 165.022 195.928 165.121 196.028 165.22C196.277 165.614 196.426 165.96 196.625 166.355C196.724 166.651 196.873 166.947 196.973 167.243C197.47 168.772 197.619 170.4 197.47 172.077C197.52 172.225 197.57 172.324 197.619 172.472C197.918 172.817 198.117 173.113 198.365 173.508C198.415 173.607 198.515 173.755 198.564 173.853C198.664 174.001 198.714 174.199 198.813 174.347C198.962 174.692 199.112 175.037 199.211 175.383C199.36 175.728 199.46 176.073 199.609 176.419C200.803 179.576 201.499 182.832 201.698 186.236C202.046 191.91 201.2 197.386 199.161 202.714C198.714 203.849 198.266 204.984 197.47 205.97C196.525 208.733 194.834 211.101 193.093 213.371C188.368 219.636 182.251 223.879 174.641 225.902C173.249 226.296 171.856 226.543 170.066 226.543C172.453 225.162 174.641 224.027 176.73 222.744C182.748 219.044 187.921 214.456 191.005 207.944C191.502 206.957 191.8 205.872 192.198 204.836C194.337 198.176 194.536 191.417 193.939 184.51C193.889 183.77 193.839 183.03 193.74 182.29C193.69 181.796 193.989 181.599 194.287 181.303C195.033 180.563 195.531 179.724 195.232 178.442C193.591 179.774 191.751 180.316 189.761 180.464C188.468 180.563 187.672 180.02 187.175 178.886C186.479 178.738 185.782 178.639 185.086 178.491C185.782 179.626 186.429 180.81 186.976 181.994C187.523 183.178 188.02 184.411 188.368 185.743C189.413 190.233 188.717 194.525 186.827 198.669C185.086 202.468 182.649 205.921 179.864 209.029C179.764 209.128 179.615 209.227 179.466 209.325C179.416 209.325 179.366 209.375 179.316 209.424C179.316 209.375 179.366 209.325 179.366 209.276C180.162 206.809 181.107 204.342 181.505 201.728C182.251 196.547 182.301 191.466 180.261 186.483C178.421 182.043 175.288 178.787 170.961 176.715C167.529 175.087 163.948 174.051 160.118 174.051C159.82 173.903 159.521 173.755 159.223 173.557C159.074 173.607 158.875 173.656 158.726 173.656C158.179 174.149 157.631 174.593 157.084 175.087C157.93 175.728 158.974 175.531 159.969 175.728C171.16 177.948 178.919 187.322 178.769 198.62C178.67 205.378 175.934 211.101 171.707 216.183C167.579 221.215 162.406 225.014 156.637 228.023C154.797 229.01 154.399 230.293 154.448 232.069C154.448 232.217 154.448 232.414 154.448 232.562C154.797 235.325 155.642 237.792 158.378 239.124C159.173 239.518 159.223 239.716 158.726 240.357C155.742 244.402 152.658 248.349 149.276 252.049H163.799C166.186 249.237 168.375 246.326 170.513 243.317C170.911 242.774 171.458 242.478 172.005 242.33C176.531 240.949 180.361 238.433 183.743 235.226C183.842 235.127 183.942 235.127 184.041 235.078C184.141 235.127 184.191 235.177 184.29 235.275C183.146 237.545 182.052 239.814 180.809 242.034C178.819 245.586 176.531 248.941 174.044 252.099H187.175C187.772 250.717 188.418 249.287 189.065 247.905C193.143 239.321 198.067 231.181 202.792 222.991C206.671 216.281 210.302 209.523 212.739 202.122C214.281 197.436 215.127 192.65 215.475 187.815C215.475 187.618 215.425 187.322 215.524 187.223C216.917 185.94 216.967 183.967 217.912 182.438H218.011C218.061 182.487 218.111 182.536 218.111 182.635C218.359 190.874 217.763 199.014 215.226 206.957C212.69 214.851 208.462 221.906 203.886 228.763C199.708 235.078 195.481 241.344 192.148 248.152C191.502 249.484 190.905 250.767 190.308 252.148H197.52C198.614 249.188 200.156 246.425 201.996 243.712C202.145 243.514 202.245 243.268 202.742 243.317C202.046 245.241 201.499 247.165 201.051 249.089C200.803 250.125 200.604 251.112 200.405 252.148H204.831C205.229 247.658 206.472 243.317 207.716 238.976C210.103 230.786 214.082 223.336 218.16 215.887C222.139 208.585 225.621 201.037 227.113 192.798C228.207 186.878 228.307 180.908 227.362 174.939C226.367 168.673 224.527 162.704 221.99 156.932C221.891 156.685 221.791 156.389 221.692 156.142C221.642 156.044 221.692 155.895 221.692 155.747C222.338 155.797 222.935 155.846 223.532 155.846C225.372 155.846 226.367 154.81 226.218 152.935C226.019 150.765 225.223 148.693 224.278 146.719C223.134 144.4 221.94 142.082 220.797 139.812C222.687 140.355 224.079 141.638 225.472 142.871C231.092 147.805 233.529 154.317 234.673 161.47C235.369 165.861 235.518 170.301 235.369 174.692C235.22 179.675 234.772 184.658 234.225 189.641C233.728 194.179 233.33 198.669 232.833 203.208C232.335 207.697 232.037 212.187 231.987 216.676C231.937 221.067 232.286 225.408 233.479 229.997C228.605 226.987 225.82 222.695 223.681 217.811C223.433 219.094 223.184 220.426 222.885 221.708C221.493 228.27 220.05 234.831 218.658 241.442C217.912 244.945 217.315 248.497 216.917 252.049H218.857C218.956 246.129 219.802 240.308 221.145 234.535C221.891 231.427 222.736 228.369 223.731 225.31C223.83 224.964 223.83 224.372 224.328 224.323C224.726 224.274 224.875 224.767 225.074 225.063C226.417 227.184 227.76 229.306 229.898 230.737C230.445 231.131 230.396 231.723 230.396 232.315C230.346 236.41 229.5 240.357 228.804 244.353C228.356 246.918 227.909 249.435 227.561 252H229.948C230.097 250.175 230.246 248.399 230.445 246.573C230.843 242.478 231.39 238.433 231.838 234.338C231.888 233.746 231.888 233.499 232.683 233.697C234.673 234.239 236.513 233.746 238.204 232.562C238.652 232.217 238.801 232.019 238.304 231.526C237.06 229.997 236.115 228.122 235.469 226.05ZM183.544 229.997C180.46 233.302 176.879 235.966 172.652 237.742C171.11 238.384 169.419 238.877 167.728 238.976C164.246 239.173 161.809 237.347 160.914 233.943C160.715 233.105 160.118 232.069 160.566 231.477C161.163 230.687 162.108 231.625 162.854 231.871C167.678 233.351 172.254 232.365 176.73 230.539C179.814 229.257 182.649 227.481 185.484 225.655C185.931 225.359 186.28 224.915 187.026 224.915C186.13 226.839 184.937 228.467 183.544 229.997ZM196.227 123.778C200.454 124.321 204.682 124.617 208.91 123.729C212.69 122.94 215.624 120.917 217.812 117.76C218.658 116.526 219.503 115.293 220.399 114.158C220.797 113.615 221.393 112.974 222.139 113.122C222.885 113.27 222.935 114.109 223.134 114.701C224.179 117.908 222.836 121.262 219.752 123.482C216.469 125.9 212.69 126.837 208.711 127.084C201.151 127.528 194.188 125.456 187.473 122.2C190.408 122.644 193.292 123.384 196.227 123.778ZM145.148 123.729C144.998 124.962 144.7 126.147 144.949 127.38C145.098 128.169 144.551 128.12 144.103 128.021C143.109 127.775 142.114 127.479 141.069 127.775C140.622 127.873 140.323 127.627 140.423 127.133C141.119 122.644 142.512 118.549 146.888 116.28C149.425 114.947 152.21 114.849 154.995 115.145C161.959 115.934 168.126 118.944 174.194 122.15C176.482 123.334 178.819 124.518 180.908 126.097C180.908 126.147 180.958 126.196 181.008 126.245C180.958 126.245 180.908 126.196 180.858 126.196C178.521 125.505 176.482 124.321 174.293 123.334C168.723 120.868 163.102 118.598 157.134 117.414C155.045 116.97 152.956 116.872 150.867 117.316C147.684 117.957 145.496 120.424 145.148 123.729ZM202.046 137.198C201.449 137.198 200.952 137.247 200.554 137.79C197.371 141.786 193.093 143.759 188.17 144.598C184.937 145.14 181.803 144.844 178.869 143.463C178.521 143.315 178.173 143.167 177.924 142.92C177.874 142.871 177.824 142.822 177.775 142.772C177.725 142.723 177.675 142.674 177.675 142.624C181.008 142.723 184.29 142.328 187.225 140.602C188.567 139.812 189.91 138.924 190.557 137.395C191.154 135.915 190.855 135.471 189.413 134.977C184.738 133.399 180.261 131.425 175.686 129.551C173.796 128.761 171.806 128.071 169.916 127.281C169.369 127.084 169.071 127.035 168.673 127.627C166.435 130.833 168.126 136.112 171.856 137.444C172.453 137.642 173.05 137.79 173.696 137.592C173.846 137.148 173.497 136.852 173.298 136.507C172.453 134.829 172.304 133.053 172.403 131.228C172.453 130.537 172.702 130.488 173.298 130.735C177.078 132.313 181.157 133.053 185.086 134.188C187.125 134.78 187.225 135.027 186.13 136.803C184.787 138.875 182.848 140.059 180.46 140.355C174.79 141.144 169.717 139.368 165.291 135.964C162.207 133.596 161.312 130.044 162.655 126.837C163.003 125.999 163.053 125.949 164.147 125.604C163.301 125.604 162.754 125.555 162.207 125.604C160.964 125.703 160.367 126.344 160.268 127.577C160.168 128.613 160.118 129.6 160.069 130.636C160.069 131.277 159.919 131.623 159.223 131.129C158.079 130.389 156.935 129.649 155.791 128.959C154.946 128.465 155.045 127.873 155.543 127.232C155.94 126.739 156.388 126.196 156.736 125.653C157.184 125.012 157.084 124.617 156.189 124.568C153.603 124.321 152.459 125.061 151.613 127.528C151.564 127.627 151.564 127.775 151.514 127.873C150.768 130.241 150.569 130.34 148.381 129.156C148.082 129.008 147.883 128.811 147.833 128.416C147.386 125.9 149.127 122.397 151.464 121.361C153.354 120.522 155.393 120.769 157.333 121.016C161.76 121.657 165.838 123.433 169.916 125.061C176.283 127.577 182.599 130.291 189.313 131.869C196.028 133.448 202.842 134.188 209.705 133.497C211.148 133.349 212.59 133.645 214.032 133.744C214.281 133.744 214.579 133.793 214.579 134.089C214.629 134.435 214.331 134.583 214.132 134.78C212.441 136.408 210.302 137 208.014 137.148C206.025 137.296 204.035 137.247 202.046 137.198ZM199.211 240.702C199.211 240.653 199.211 240.653 199.261 240.604C199.261 240.653 199.261 240.653 199.211 240.702ZM222.488 169.315C224.278 173.212 225.223 177.258 225.571 181.55C226.317 190.775 224.079 199.409 220.747 207.895C217.265 216.676 212.491 224.718 206.821 232.217C204.881 234.782 202.842 237.2 200.554 239.518C200.255 239.814 199.957 240.209 199.46 240.258C199.41 240.357 199.36 240.406 199.31 240.505C199.36 240.406 199.41 240.308 199.46 240.209C199.907 238.729 200.852 237.495 201.648 236.262C205.527 230.243 209.506 224.323 212.739 217.91C216.171 211.101 218.956 204.046 220.05 196.449C220.498 193.39 220.846 190.282 220.747 187.174C220.548 180.316 219.105 173.705 216.37 167.391C214.331 162.704 211.645 158.362 208.711 154.218C208.611 154.07 208.412 153.922 208.611 153.626C210.004 154.415 211.197 155.451 212.391 156.438C216.818 159.941 220.15 164.233 222.488 169.315ZM224.079 138.974C222.686 138.678 221.393 138.135 220.15 137.494C219.255 137.05 219.205 136.507 219.802 135.718C221.045 134.04 220.946 133.448 219.454 131.968C218.558 131.08 217.315 130.587 216.37 129.699C218.708 130.192 220.896 131.179 223.234 131.672C226.168 132.264 229.053 132.412 231.888 131.327C232.932 130.932 233.927 130.389 234.822 129.748C235.369 129.353 235.717 129.403 236.115 130.044C238.005 133.103 237.011 136.507 233.877 138.234C230.694 139.862 227.411 139.714 224.079 138.974ZM194.337 162.506C194.387 162.506 194.387 162.506 194.337 162.506V162.506ZM194.337 162.506C194.387 162.506 194.387 162.506 194.337 162.506V162.506ZM194.337 162.506C194.387 162.506 194.387 162.506 194.337 162.506V162.506ZM194.337 162.506C194.387 162.506 194.387 162.506 194.337 162.506V162.506Z" fill="white"/>
<path d="M234.623 59.199C231.191 60.8764 227.511 62.0605 223.98 63.5405C220.996 64.8232 218.061 66.1553 215.922 68.6713C215.127 69.6087 214.729 69.806 213.635 68.9674C209.755 66.0073 205.975 66.4513 202.643 70.0527C201.748 70.9901 201.101 72.1248 200.206 73.3088C200.206 72.1741 200.255 71.2368 200.206 70.2994C200.057 67.4873 198.316 65.4152 195.58 64.7739C194.884 64.6259 193.84 64.7245 193.491 64.2805C193.093 63.7378 193.889 62.9978 194.088 62.3071C195.232 58.459 193.143 55.7949 189.065 55.9429C187.672 55.9923 186.429 56.4363 185.036 57.0776C184.937 54.0189 183.445 51.8975 181.157 50.1707C180.46 49.6281 180.013 48.9374 179.615 48C179.068 49.184 178.222 49.9241 177.327 50.6148C176.183 51.5028 175.686 52.7362 175.288 54.0682C174.89 55.4989 175.188 56.979 174.989 58.5577C173.895 57.867 172.901 57.3243 171.806 57.0283C169.717 56.4363 167.877 57.3736 167.181 59.3964C166.733 60.6297 166.783 61.9125 167.081 63.1458C167.231 63.8365 167.28 64.2312 166.335 64.3299C163.103 64.6259 161.213 66.4513 160.466 69.6087C160.069 71.2861 160.168 72.9635 160.168 75.0356C159.571 74.0489 159.173 73.4075 158.775 72.7661C157.532 70.8421 155.99 69.4114 153.653 68.9674C150.818 68.4247 148.43 69.4114 146.391 71.2368C145.794 71.7794 145.446 71.9768 145.048 71.0888C144.899 70.6941 144.65 70.3981 144.402 70.0527C143.208 68.1287 141.716 66.5993 139.428 66.0073C134.952 64.8232 130.674 63.2938 126.994 60.4324L126.895 60.6297C126.944 60.7284 126.944 60.8764 126.994 60.9751C132.714 71.0888 136.941 81.7944 140.671 92.7961C142.959 99.6044 145.048 106.511 147.535 113.27C148.331 113.171 149.077 113.122 149.873 113.023C156.338 112.431 162.655 113.517 169.021 114.207C172.353 114.553 175.636 115.293 178.968 115.342C182.002 113.862 184.887 115.54 187.821 115.885C192.397 116.428 196.973 117.118 201.549 117.266C204.185 117.365 206.821 117.365 209.407 117.02C210.103 116.921 210.402 117.217 210.352 117.908C211.247 117.858 212.093 117.71 212.839 117.266C214.231 110.261 216.022 103.304 218.061 96.4469C220.996 86.3333 224.974 76.6636 230.147 67.4873C231.689 64.7739 233.231 62.0605 234.772 59.347C234.723 59.2977 234.673 59.2484 234.623 59.199ZM152.061 100.394C152.708 98.963 153.901 98.4203 155.393 98.2723C159.372 97.8776 163.301 97.927 167.181 98.667C169.071 99.0617 170.016 100.196 169.867 102.12C169.767 103.995 168.524 105.229 166.634 105.327C165.49 105.377 164.296 105.327 163.152 105.377H161.66C159.422 105.327 157.234 105.327 154.996 105.179C152.558 105.031 151.066 102.663 152.061 100.394ZM207.965 112.53C205.428 112.53 202.892 112.53 200.156 112.53C195.431 112.727 190.507 112.382 185.534 112.037C179.118 111.543 172.751 110.853 166.335 110.409C162.754 110.113 159.173 109.767 155.592 109.817C154.896 109.817 154.2 109.669 153.503 109.619C153.155 109.57 152.807 109.521 152.857 109.077C152.907 108.633 153.304 108.633 153.653 108.682C156.587 108.83 159.522 108.978 162.406 109.225C165.241 109.422 168.076 109.669 170.911 109.915C174.194 110.211 177.476 110.507 180.759 110.803C182.102 110.951 183.494 111.001 184.837 111.05C187.523 111.149 190.209 111.297 192.895 111.445C196.923 111.593 200.902 111.642 204.931 111.593C205.975 111.593 206.97 111.445 208.014 111.395C208.462 111.395 208.91 111.494 208.91 112.037C208.86 112.579 208.363 112.53 207.965 112.53ZM176.631 98.2723C177.476 98.2723 178.272 98.2723 179.217 98.2723C181.803 98.1736 184.439 98.4697 187.125 98.815C188.567 98.963 189.811 99.6044 190.557 100.936C191.253 102.12 191.154 103.255 190.408 104.291C189.711 105.278 188.717 106.067 187.374 105.87C184.688 105.475 181.903 105.919 179.217 105.426C178.073 105.229 176.929 105.13 175.785 104.933C174.144 104.637 173.398 103.896 173.149 102.318C172.851 100.196 174.492 98.3216 176.631 98.2723ZM208.462 108.09C208.014 108.139 207.567 108.09 207.119 108.09C203.488 107.893 199.858 107.745 196.476 106.215C194.785 105.475 194.088 104.39 194.287 102.564C194.486 100.591 195.829 99.3577 197.818 99.5057C201.449 99.8017 205.179 99.7524 208.711 100.936C210.302 101.479 211.745 102.762 211.944 104.044C212.142 106.067 210.501 107.942 208.462 108.09ZM214.729 83.8172C214.53 86.0866 214.182 88.3067 213.635 90.4774C213.286 91.7601 212.839 92.9441 211.944 93.9802C210.402 95.8056 208.263 96.2002 206.174 95.7069C203.687 95.1149 201.35 95.8056 198.962 96.1016C194.287 96.6936 190.159 95.6576 187.075 91.9081C185.484 89.9347 184.738 87.616 184.39 85.1492C184.24 83.9652 184.091 82.7811 184.141 81.5971C184.141 81.0051 183.992 80.7091 183.345 81.0544C182.798 81.3011 182.251 81.3998 181.505 80.9557C182.599 80.1664 183.743 79.4757 184.489 78.4397C186.926 75.1342 185.733 70.0527 182.5 67.8326C181.555 67.1913 180.51 66.994 179.317 67.6353C177.824 68.4247 176.432 69.214 175.537 70.6941C174.194 72.9141 174.492 75.1836 175.387 77.453C175.984 78.8837 176.681 80.3144 177.626 81.5478C178.123 82.1891 178.173 82.8305 178.023 83.6198C177.128 89.392 173.597 92.9935 168.225 94.5722C164.197 95.8056 159.969 95.9042 156.09 93.6842C155.642 93.4375 155.194 93.3881 154.697 93.4868C153.354 93.6842 151.962 93.7828 150.619 93.4375C147.833 92.7961 146.242 90.5267 146.142 87.4186C146.043 84.9025 146.341 82.4358 146.54 79.9197C146.739 77.897 146.789 75.8249 145.993 73.8022C146.739 73.8022 146.739 74.2462 146.839 74.5422C147.187 75.9236 147.286 77.305 147.336 78.6863C147.386 81.4491 147.336 84.2119 147.386 86.9253C147.386 88.356 147.784 89.688 148.48 90.9214C149.375 92.5495 150.967 93.1415 153.106 92.7468C153.553 92.6481 154.001 92.5001 154.448 92.4508C155.592 92.3521 156.04 91.7601 155.891 90.6254C155.841 90.0827 155.99 89.54 156.189 89.096C157.83 85.8399 159.472 82.5838 160.317 78.9823C160.815 80.3637 160.417 81.6958 159.969 82.9785C159.372 84.8039 158.278 86.4319 157.333 88.1586C155.841 90.9214 156.736 92.6975 159.72 93.7828C161.859 94.5722 163.998 94.5229 165.888 92.9935C167.43 91.7601 167.728 90.4774 166.733 88.7013C165.838 87.1719 164.644 85.8399 163.65 84.4092C162.953 83.4718 162.207 82.5345 162.108 81.3011C162.406 81.2024 162.506 81.3011 162.605 81.4491C163.849 83.4225 165.291 85.1985 166.684 87.0239C168.325 89.096 168.971 91.2174 167.181 93.7828C169.17 93.5855 170.762 93.0921 172.055 92.0561C174.293 90.3294 176.084 88.2573 176.929 85.5439C177.427 83.8172 177.526 82.2385 176.233 80.7091C174.89 79.1304 174.094 77.2556 173.696 75.1342C173.199 72.2728 174.393 69.51 176.929 67.9807C177.078 67.882 177.178 67.7833 177.327 67.734C179.068 66.7966 180.709 65.7112 182.848 66.8459C185.136 68.0793 186.976 69.6087 187.573 72.2235C188.319 75.4796 187.473 78.637 186.578 81.7944C185.384 86.0372 186.081 89.9347 189.413 93.0921C190.259 93.8815 191.253 94.3255 192.298 94.7202C192.845 94.9175 193.143 94.7202 192.944 94.1282C191.85 90.4774 193.342 87.468 195.481 84.6559C197.52 81.9918 198.863 79.0317 198.763 75.5782C198.763 74.1969 198.117 72.9635 197.918 71.6808C199.062 72.9635 199.41 74.5422 199.509 76.1703C199.808 79.377 198.266 82.0411 196.724 84.7052C195.978 85.9386 195.232 87.1719 194.536 88.4547C193.342 90.7734 193.491 92.5988 194.884 93.8815C196.326 95.2629 198.913 95.5589 200.902 94.5229C202.892 93.5362 203.737 91.6614 203.389 89.392C203.041 86.8266 201.996 84.4092 201.2 81.9918C200.604 80.1664 200.405 78.2917 200.454 76.4169C200.504 75.3809 200.902 74.5422 201.598 73.8515C201.996 74.0489 201.847 74.2955 201.797 74.4929C200.952 77.749 201.499 80.9064 202.643 84.0145C203.538 86.3826 204.234 88.7507 204.185 91.3161C204.185 91.9574 204.085 92.5495 203.936 93.1415C203.588 94.4242 203.787 94.6709 205.13 94.6709C208.213 94.6215 210.352 93.7828 211.645 90.28C213.087 86.4319 213.485 82.2878 214.629 78.341C215.127 76.6143 215.723 74.9369 216.221 73.2102C216.32 73.2595 216.42 73.3088 216.569 73.3088C215.723 76.7129 215.077 80.2157 214.729 83.8172ZM216.718 72.4701L216.668 72.3715H216.768L216.718 72.4701Z" fill="#DC2F2F"/>
<path d="M153.205 134.533C153.205 134.583 153.255 134.583 153.205 134.533V134.533ZM154.995 136.458C154.995 136.507 154.995 136.507 154.995 136.458V136.458ZM155.244 136.704C155.244 136.754 155.244 136.754 155.244 136.704V136.704ZM153.205 134.533C153.205 134.583 153.255 134.583 153.205 134.533V134.533ZM154.995 136.458C154.995 136.507 154.995 136.507 154.995 136.458V136.458ZM155.244 136.704C155.244 136.754 155.244 136.754 155.244 136.704V136.704ZM153.205 134.533C153.205 134.583 153.255 134.583 153.205 134.533V134.533ZM154.995 136.458C154.995 136.507 154.995 136.507 154.995 136.458V136.458ZM155.244 136.704C155.244 136.754 155.244 136.754 155.244 136.704V136.704ZM153.205 134.533C153.205 134.583 153.255 134.583 153.205 134.533V134.533ZM154.995 136.458C154.995 136.507 154.995 136.507 154.995 136.458V136.458ZM155.244 136.704C155.244 136.754 155.244 136.754 155.244 136.704V136.704ZM190.557 161.026C189.96 160.04 189.413 158.954 188.667 157.672C190.159 158.264 190.806 159.596 192.099 159.892C191.502 159.25 190.905 158.609 190.258 157.968C188.368 156.093 186.329 154.415 183.942 153.182C176.631 149.433 168.772 147.657 160.665 146.867C159.969 146.818 159.621 146.571 159.472 145.93C158.925 143.266 157.781 140.799 156.388 138.431H156.438C156.388 138.382 156.338 138.382 156.289 138.332C156.139 138.234 156.04 138.086 155.99 137.938C155.99 137.888 155.94 137.888 155.94 137.839V137.79C155.94 137.74 155.94 137.74 155.891 137.691C155.841 137.691 155.791 137.642 155.791 137.592C155.741 137.543 155.692 137.494 155.642 137.494C155.592 137.444 155.543 137.395 155.543 137.296C155.543 137.247 155.493 137.247 155.493 137.198C155.443 137.148 155.443 137.05 155.443 136.951H155.493C155.393 136.951 155.294 136.902 155.244 136.852C155.244 136.852 155.244 136.852 155.244 136.803C155.244 136.754 155.244 136.704 155.194 136.704C155.145 136.704 155.145 136.704 155.095 136.704C155.045 136.704 154.995 136.606 154.946 136.556C154.946 136.507 154.946 136.507 154.946 136.458C154.747 136.359 154.598 136.26 154.647 136.063C154.598 136.014 154.548 135.964 154.448 135.964C154.15 135.668 153.802 135.323 153.503 135.027C153.454 134.978 153.404 134.879 153.404 134.83H153.503C153.304 134.83 153.205 134.78 153.205 134.583C153.155 134.583 153.105 134.583 153.056 134.583C153.006 134.583 153.006 134.583 152.956 134.533C152.907 134.533 152.907 134.484 152.857 134.484C152.807 134.435 152.807 134.435 152.757 134.385C152.708 134.336 152.708 134.287 152.658 134.287C152.608 134.237 152.509 134.188 152.459 134.139C147.386 130.143 141.616 128.219 135.151 128.219C134.803 128.268 134.504 128.367 134.156 128.367C130.426 128.416 126.944 129.403 123.761 131.179C118.24 134.287 115.356 139.023 115.206 145.338C115.107 149.63 116.5 153.626 118.24 157.524C118.986 159.102 119.036 159.102 120.379 157.918C120.677 157.672 120.976 157.425 121.274 157.228C125.751 153.922 130.674 152.393 136.245 153.231C138.831 153.626 140.97 154.958 142.91 156.537L142.959 156.488C142.114 154.81 140.423 154.218 138.881 153.527C134.106 151.554 129.481 152.639 124.905 154.366C124.308 154.563 123.761 154.859 123.214 155.106C122.916 155.205 122.567 155.649 122.219 155.254C121.921 154.909 122.17 154.465 122.319 154.119C123.363 151.801 125.154 150.222 127.342 148.989C132.316 146.226 137.538 146.078 142.91 147.558C146.938 148.643 150.619 150.518 154.05 152.837C154.946 153.429 155.791 153.577 156.836 153.527C164.047 152.935 171.11 153.577 177.675 156.981C181.057 158.757 183.892 161.125 185.235 164.924C185.434 165.467 185.533 166.009 185.335 166.601C185.285 166.552 185.235 166.503 185.136 166.453L185.086 166.404C185.036 166.355 185.036 166.305 184.986 166.305C184.937 166.256 184.937 166.157 184.887 166.108C184.887 166.059 184.837 165.96 184.787 165.911C184.787 165.861 184.787 165.861 184.738 165.812C184.738 165.763 184.738 165.763 184.688 165.713C184.688 165.664 184.638 165.664 184.638 165.615C184.638 165.565 184.589 165.565 184.589 165.516C184.539 165.467 184.489 165.417 184.439 165.368C184.39 165.319 184.34 165.269 184.29 165.269C184.29 165.269 184.29 165.269 184.24 165.269C184.24 165.368 184.29 165.467 184.29 165.565C184.29 165.664 184.29 165.713 184.29 165.812C184.29 165.861 184.29 165.96 184.29 166.009C184.29 166.059 184.29 166.157 184.29 166.207C184.34 167.736 183.793 168.476 182.45 168.821C182.151 168.92 181.803 168.969 181.555 168.723C179.466 167.44 177.476 166.108 175.188 165.22C170.066 163.246 164.943 163.246 159.87 165.269C158.079 166.256 156.239 167.243 154.796 168.723C154.1 169.463 153.454 170.252 152.956 171.189C152.857 171.436 152.807 171.732 152.708 172.028C152.21 173.557 152.509 174.593 153.603 175.432C154.796 176.32 155.344 176.32 156.885 175.235C157.433 174.741 157.98 174.297 158.527 173.804C157.631 173.656 156.935 174.199 156.239 174.544C155.891 174.692 155.592 174.988 155.244 174.643C154.846 174.297 154.995 173.903 155.145 173.508C155.692 172.373 156.587 171.485 157.631 170.844C161.959 168.131 166.634 167.687 171.558 168.624C175.785 169.463 179.466 171.436 183.047 173.656C184.787 174.741 186.727 175.037 188.766 174.84C191.004 174.593 192.596 172.768 192.696 170.449C193.193 166.897 192.248 163.888 190.557 161.026ZM155.791 148.643C155.194 148.939 154.846 148.545 154.548 148.199C151.912 145.486 148.878 143.611 145.048 143.019C143.656 142.822 142.263 142.723 140.87 142.624C139.776 142.526 138.732 142.23 137.836 141.391C138.085 141.292 138.185 141.243 138.234 141.243C140.522 141.884 140.522 141.884 140.92 139.615C141.02 139.072 141.119 138.53 141.417 138.086C142.412 136.655 141.965 135.57 140.821 134.533C140.721 134.435 140.671 134.336 140.622 134.237C140.622 134.188 140.622 134.139 140.622 133.991C142.512 134.139 144.302 134.731 146.043 135.422C151.414 137.691 154.498 141.934 156.139 147.311C156.289 147.854 156.388 148.347 155.791 148.643ZM155.244 136.704C155.244 136.754 155.244 136.754 155.244 136.704V136.704ZM154.995 136.458C154.995 136.507 154.995 136.507 154.995 136.458V136.458ZM153.205 134.533C153.205 134.583 153.255 134.583 153.205 134.533V134.533ZM155.244 136.704C155.244 136.754 155.244 136.754 155.244 136.704V136.704ZM154.995 136.458C154.995 136.507 154.995 136.507 154.995 136.458V136.458ZM153.205 134.533C153.205 134.583 153.255 134.583 153.205 134.533V134.533ZM155.244 136.704C155.244 136.754 155.244 136.754 155.244 136.704V136.704ZM154.995 136.458C154.995 136.507 154.995 136.507 154.995 136.458V136.458ZM153.205 134.533C153.205 134.583 153.255 134.583 153.205 134.533V134.533ZM155.244 136.704C155.244 136.754 155.244 136.754 155.244 136.704V136.704ZM154.995 136.458C154.995 136.507 154.995 136.507 154.995 136.458V136.458ZM153.205 134.533C153.205 134.583 153.255 134.583 153.205 134.533V134.533ZM154.995 136.458C154.995 136.507 154.995 136.507 154.995 136.458V136.458ZM153.205 134.533C153.205 134.583 153.255 134.583 153.205 134.533V134.533Z" fill="#DC2F2F"/>
<path d="M184.489 165.121C184.837 167.292 184.34 168.279 182.699 168.673C182.4 168.772 182.052 168.821 181.803 168.575C183.196 167.835 183.494 166.651 182.45 165.763C177.924 161.766 172.652 159.596 166.584 159.448C162.307 159.349 158.179 160.237 154.15 161.52C148.281 163.345 142.512 165.516 136.643 167.391C130.475 169.364 124.159 170.597 117.594 169.808C116.997 169.759 116.4 169.413 115.555 169.66C115.952 169.857 116.151 170.005 116.4 170.104C116.798 170.252 117.146 170.4 117.544 170.548C123.115 172.719 128.884 172.571 134.653 171.584C140.671 170.548 146.441 168.624 152.26 166.947C154.846 166.207 157.383 165.269 160.069 165.072C158.278 166.059 156.438 167.045 154.995 168.525C154.299 169.265 153.653 170.055 153.155 170.992C146.64 172.176 140.323 174.051 133.957 175.728C127.392 177.504 120.827 177.554 114.311 175.334C108.343 173.311 105.757 168.427 107.398 162.112C108.492 163.148 109.537 164.233 110.78 165.023C114.56 167.539 118.638 167.687 122.916 166.848C127.143 166.009 131.122 164.332 135.051 162.654C138.334 161.322 141.616 159.941 145.048 159.152C145.943 159.102 146.739 158.806 147.585 158.609C153.006 157.228 158.477 156.192 164.097 156.389C169.568 156.537 174.741 157.622 179.466 160.582C180.858 161.47 182.052 162.605 183.395 163.542C183.494 163.641 183.544 163.74 183.644 163.838L183.594 163.789C183.644 163.986 183.693 164.184 183.942 164.233C183.992 164.332 184.091 164.431 184.141 164.579L184.091 164.529C184.24 164.825 184.29 165.023 184.489 165.121Z" fill="white"/>
<path d="M183.494 163.641C182.151 162.704 180.958 161.569 179.565 160.681C174.89 157.721 169.668 156.636 164.197 156.488C158.576 156.34 153.105 157.326 147.684 158.708C146.839 158.905 146.043 159.201 145.148 159.25C144.998 159.004 144.899 158.708 144.75 158.461L144.799 158.412C145.347 158.56 145.844 158.51 146.341 158.362C151.663 156.932 157.035 156.093 162.555 155.945C164.943 155.896 167.33 156.142 169.717 156.488C173.746 157.08 177.625 158.313 180.908 160.78C181.952 161.52 183.146 162.26 183.494 163.641Z" fill="#DC2F2F"/>
<path d="M144.75 158.461C144.252 157.869 143.755 157.326 143.258 156.734L143.307 156.685C144.153 156.981 144.7 157.474 144.799 158.412L144.75 158.461Z" fill="#DC2F2F"/>
<path d="M143.258 156.734C143.158 156.636 143.109 156.586 143.009 156.488L143.059 156.438C143.158 156.537 143.208 156.586 143.307 156.685L143.258 156.734Z" fill="white"/>
<path d="M126.895 60.6297C126.845 60.5311 126.745 60.4324 126.696 60.3337C126.845 60.235 126.994 60.3337 127.093 60.4324C126.994 60.5311 126.944 60.5804 126.895 60.6297Z" fill="white"/>
<path d="M126.696 60.3337H126.646V60.3834L126.696 60.3337Z" fill="white"/>
<path d="M234.623 59.199C234.772 59.199 234.872 59.1497 235.021 59.1497C234.922 59.2483 234.872 59.2977 234.772 59.3963C234.723 59.2977 234.673 59.2483 234.623 59.199Z" fill="white"/>
<path d="M235.668 174.593C235.518 179.576 235.071 184.559 234.524 189.542C234.026 194.081 233.628 198.57 233.131 203.109C232.634 207.599 232.335 212.088 232.285 216.578C232.236 220.968 232.584 225.31 233.778 229.898C228.903 226.889 226.118 222.596 223.98 217.712C223.731 218.995 223.482 220.327 223.184 221.61C221.791 228.171 220.349 234.733 218.956 241.344C218.21 244.846 217.613 248.399 217.215 251.951H205.03C205.428 247.461 206.671 243.12 207.915 238.778C210.302 230.589 214.281 223.139 218.359 215.689C222.338 208.388 225.82 200.84 227.312 192.601C228.406 186.681 228.506 180.711 227.561 174.741C226.566 168.476 224.726 162.506 222.189 156.734C222.09 156.488 221.99 156.192 221.891 155.945C221.841 155.846 221.891 155.698 221.891 155.55C222.537 155.6 223.134 155.649 223.731 155.649C225.571 155.649 226.566 154.613 226.417 152.738C226.218 150.567 225.422 148.495 224.477 146.522C223.333 144.203 222.139 141.884 220.995 139.615C222.885 140.158 224.278 141.44 225.671 142.674C231.291 147.607 233.728 154.119 234.872 161.273C235.668 165.763 235.817 170.153 235.668 174.593Z" fill="#DC2F2F"/>
<path d="M177.625 142.624C181.007 142.723 184.24 142.378 187.175 140.602C188.518 139.812 189.861 138.924 190.507 137.395C191.104 135.915 190.806 135.471 189.363 134.978C184.688 133.399 180.212 131.376 175.636 129.551C173.696 128.761 171.806 128.071 169.867 127.281C169.319 127.084 169.021 127.084 168.623 127.627C166.385 130.833 168.076 136.112 171.806 137.444C172.403 137.642 173 137.79 173.647 137.592C173.796 137.148 173.448 136.852 173.249 136.507C172.403 134.829 172.254 133.053 172.353 131.228C172.403 130.537 172.652 130.488 173.249 130.735C177.029 132.313 181.107 133.053 185.036 134.188C187.075 134.78 187.175 135.027 186.081 136.803C184.738 138.875 182.798 140.059 180.411 140.355C174.741 141.144 169.668 139.418 165.241 135.964C162.157 133.596 161.262 130.044 162.605 126.837C162.953 125.999 163.003 125.949 164.097 125.604C163.301 125.604 162.705 125.555 162.157 125.604C160.914 125.703 160.317 126.344 160.218 127.577C160.168 128.613 160.069 129.6 160.019 130.636C159.969 131.277 159.87 131.623 159.173 131.129C158.029 130.389 156.885 129.649 155.741 128.959C154.896 128.465 154.995 127.873 155.543 127.232C155.94 126.739 156.388 126.196 156.736 125.653C157.184 125.012 157.084 124.617 156.189 124.568C153.603 124.321 152.459 125.061 151.613 127.528C151.564 127.627 151.564 127.775 151.514 127.873C150.768 130.241 150.569 130.34 148.381 129.156C148.082 129.008 147.883 128.811 147.833 128.416C147.386 125.9 149.127 122.397 151.464 121.361C153.354 120.522 155.393 120.769 157.333 121.016C161.76 121.657 165.838 123.433 169.916 125.061C176.283 127.577 182.599 130.291 189.313 131.869C196.028 133.448 202.842 134.188 209.705 133.497C211.148 133.349 212.59 133.645 214.032 133.744C214.281 133.744 214.579 133.793 214.579 134.089C214.629 134.435 214.331 134.583 214.132 134.78C212.441 136.408 210.302 137 208.014 137.099C206.025 137.198 204.035 137.148 202.046 137.099C201.449 137.099 200.952 137.148 200.504 137.691C197.321 141.687 193.044 143.66 188.12 144.499C184.887 145.042 181.803 144.746 178.819 143.364C178.371 143.266 177.874 143.118 177.625 142.624Z" fill="#DC2F2F"/>
<path d="M184.389 235.177C183.246 237.446 182.151 239.716 180.908 241.936C178.918 245.488 176.631 248.843 174.144 252H163.848C166.236 249.188 168.424 246.277 170.563 243.268C170.961 242.725 171.508 242.429 172.055 242.281C176.581 240.9 180.411 238.384 183.793 235.177C183.892 235.078 183.992 235.078 184.091 235.029C184.24 235.029 184.29 235.127 184.389 235.177Z" fill="#DC2F2F"/>
<path d="M230.744 232.315C230.694 236.41 229.849 240.357 229.152 244.353C228.705 246.918 228.257 249.435 227.909 252H219.155C219.255 246.08 220.1 240.258 221.443 234.486C222.189 231.378 223.035 228.319 224.029 225.26C224.129 224.915 224.129 224.323 224.626 224.274C225.024 224.224 225.173 224.718 225.372 225.014C226.715 227.135 228.058 229.257 230.197 230.687C230.794 231.082 230.744 231.723 230.744 232.315Z" fill="#DC2F2F"/>
<path d="M215.475 206.809C212.938 214.703 208.71 221.758 204.135 228.615C199.957 234.93 195.729 241.196 192.397 248.004C191.75 249.336 191.154 250.619 190.557 252H187.274C187.871 250.619 188.518 249.188 189.164 247.807C193.243 239.222 198.166 231.082 202.891 222.892C206.771 216.183 210.402 209.424 212.839 202.024C214.38 197.337 215.226 192.551 215.574 187.717C215.574 187.519 215.524 187.223 215.624 187.125C217.016 185.842 217.066 183.868 218.011 182.339H218.111C218.16 182.388 218.21 182.438 218.21 182.536C218.608 190.726 217.961 198.866 215.475 206.809Z" fill="#DC2F2F"/>
<path d="M199.46 240.209C199.907 238.729 200.852 237.496 201.648 236.262C205.528 230.243 209.506 224.323 212.739 217.91C216.171 211.101 218.956 204.046 220.051 196.449C220.498 193.39 220.846 190.282 220.747 187.174C220.548 180.316 219.106 173.705 216.37 167.391C214.331 162.704 211.645 158.362 208.711 154.218C208.611 154.07 208.412 153.922 208.611 153.626C210.004 154.415 211.197 155.451 212.391 156.438C216.768 159.99 220.1 164.282 222.438 169.364C224.228 173.261 225.173 177.307 225.522 181.55C226.268 190.775 224.029 199.409 220.697 207.895C217.216 216.676 212.441 224.718 206.771 232.217C204.831 234.782 202.792 237.2 200.504 239.518C200.255 239.814 200.007 240.209 199.46 240.209Z" fill="#DC2F2F"/>
<path d="M179.565 209.128C180.361 206.661 181.306 204.194 181.704 201.58C182.45 196.4 182.5 191.318 180.46 186.335C178.62 181.895 175.487 178.639 171.16 176.567C167.728 174.939 164.147 173.903 160.317 173.903C160.417 173.311 160.914 173.311 161.312 173.163C166.186 171.485 170.911 172.077 175.586 174.1C176.432 174.495 177.178 175.136 178.172 175.136C178.272 175.334 178.471 175.383 178.67 175.383C178.72 175.482 178.769 175.531 178.869 175.63C181.007 176.567 182.897 178.047 185.334 178.343C186.677 180.662 187.97 182.931 188.617 185.595C189.711 190.085 188.965 194.377 187.075 198.521C185.334 202.32 182.897 205.773 180.112 208.881C180.013 208.98 179.863 209.079 179.714 209.177L179.565 209.128Z" fill="#DC2F2F"/>
<path d="M158.825 173.557C157.93 173.409 157.234 173.952 156.537 174.297C156.189 174.445 155.891 174.741 155.543 174.396C155.194 174.051 155.294 173.656 155.443 173.261C155.99 172.127 156.886 171.239 157.93 170.597C162.257 167.884 166.932 167.44 171.856 168.377C176.084 169.216 179.764 171.189 183.345 173.409C185.086 174.495 187.026 174.791 189.065 174.593C191.303 174.347 192.895 172.521 192.994 170.203C193.193 166.848 192.198 163.789 190.507 160.928C189.91 159.892 189.363 158.856 188.667 157.573C190.209 158.165 190.806 159.497 192.099 159.793C192.298 160.04 192.497 160.237 192.696 160.484C192.696 160.73 192.745 160.928 193.094 160.928C193.094 161.125 193.143 161.174 193.342 161.174C193.193 161.717 193.491 161.964 193.989 162.013C193.989 162.26 194.039 162.457 194.337 162.457C194.237 162.901 194.337 163.197 194.884 163.148V163.197C194.735 163.542 194.884 163.74 195.232 163.789C195.133 164.332 195.431 164.726 195.68 165.17C197.023 167.835 197.818 170.548 196.575 173.508C196.476 173.705 196.575 174.001 196.575 174.199H196.525C196.277 174.297 196.227 174.445 196.227 174.692C196.177 174.791 196.078 174.889 196.028 174.988H196.078C195.829 175.037 195.73 175.235 195.73 175.432C195.63 175.531 195.58 175.629 195.481 175.728V175.679C195.381 175.827 195.282 175.925 195.232 176.073C195.232 176.172 195.182 176.172 195.133 176.172C194.983 176.271 194.884 176.369 194.735 176.419C194.635 176.517 194.536 176.665 194.436 176.764C194.436 176.814 194.387 176.863 194.287 176.912C193.84 176.912 193.342 176.912 193.243 177.504V177.455C193.143 177.504 193.044 177.603 192.944 177.652H192.994C192.696 177.702 192.397 177.652 192.149 177.751C189.761 178.639 187.473 178.442 185.136 177.603C182.251 176.567 179.665 174.939 176.879 173.656C176.382 173.409 175.885 173.015 175.238 173.311V173.261C174.045 172.324 172.702 171.929 171.21 171.929C167.131 171.387 163.152 171.633 159.323 173.163C159.124 173.212 158.875 173.261 158.825 173.557Z" fill="#DC2F2F"/>
<path d="M202.991 243.169C202.295 245.093 201.748 247.017 201.3 248.941C201.051 249.977 200.852 250.964 200.653 252H197.818C198.913 249.04 200.454 246.277 202.295 243.564C202.394 243.366 202.494 243.12 202.991 243.169Z" fill="#DC2F2F"/>
<path d="M187.075 224.915C186.13 226.839 184.937 228.517 183.544 229.997C180.461 233.302 176.879 235.966 172.652 237.742C171.06 238.384 169.469 238.877 167.728 238.976C164.246 239.173 161.809 237.348 160.914 233.943C160.715 233.105 160.118 232.069 160.566 231.477C161.163 230.687 162.108 231.625 162.854 231.871C167.678 233.351 172.254 232.365 176.73 230.539C179.814 229.257 182.649 227.481 185.484 225.655C185.931 225.359 186.28 224.915 187.075 224.915Z" fill="#DC2F2F"/>
<path d="M187.523 122.15C190.457 122.644 193.292 123.384 196.227 123.729C200.454 124.272 204.682 124.518 208.91 123.68C212.689 122.89 215.624 120.868 217.812 117.71C218.658 116.477 219.503 115.293 220.399 114.109C220.797 113.566 221.393 112.925 222.139 113.073C222.885 113.221 222.935 114.059 223.134 114.651C224.179 117.858 222.836 121.213 219.752 123.433C216.469 125.851 212.689 126.788 208.711 127.035C201.2 127.528 194.237 125.406 187.523 122.15Z" fill="#DC2F2F"/>
<path d="M216.32 129.699C218.658 130.192 220.846 131.179 223.184 131.672C226.118 132.264 229.003 132.412 231.838 131.327C232.882 130.932 233.877 130.389 234.772 129.748C235.32 129.353 235.668 129.403 236.066 130.044C237.956 133.103 236.961 136.507 233.827 138.234C230.694 139.96 227.411 139.763 224.079 139.023C222.736 138.727 221.393 138.184 220.15 137.543C219.255 137.099 219.205 136.556 219.802 135.767C221.095 134.089 220.996 133.497 219.454 132.017C218.509 131.031 217.315 130.587 216.32 129.699Z" fill="#DC2F2F"/>
<path d="M199.211 202.566C198.763 203.701 198.316 204.836 197.52 205.822C196.575 208.585 194.884 210.953 193.143 213.223C188.418 219.488 182.301 223.731 174.691 225.754C173.298 226.148 171.906 226.395 170.115 226.395C172.503 225.014 174.691 223.879 176.78 222.596C182.798 218.896 187.971 214.308 191.054 207.796C191.552 206.809 191.85 205.724 192.248 204.688C194.387 198.028 194.585 191.269 193.989 184.362C193.939 183.622 193.889 182.882 193.79 182.142C193.74 181.648 194.038 181.451 194.337 181.155C195.083 180.415 195.58 179.576 195.282 178.294C193.64 179.626 191.8 180.168 189.811 180.316C188.518 180.415 187.722 179.872 187.225 178.738C189.015 178.886 190.806 178.984 192.447 178.146C193.292 178.195 193.939 177.8 194.585 177.356C196.326 176.123 197.321 174.495 197.619 172.423C198.614 173.557 199.062 174.988 199.559 176.37C200.753 179.527 201.449 182.783 201.648 186.187C202.145 191.762 201.25 197.238 199.211 202.566Z" fill="#DC2F2F"/>
<path d="M180.809 126.196C178.471 125.505 176.432 124.321 174.243 123.334C168.673 120.868 163.053 118.598 157.084 117.414C154.996 116.97 152.907 116.872 150.818 117.316C147.734 117.957 145.546 120.424 145.148 123.729C144.999 124.962 144.7 126.147 144.949 127.38C145.098 128.169 144.551 128.12 144.153 128.021C143.158 127.775 142.164 127.479 141.119 127.775C140.671 127.873 140.373 127.627 140.473 127.133C141.169 122.644 142.561 118.549 146.938 116.28C149.475 114.947 152.26 114.849 155.045 115.145C162.008 115.934 168.176 118.944 174.243 122.15C176.531 123.334 178.869 124.518 180.958 126.097C180.858 126.097 180.809 126.147 180.809 126.196Z" fill="#DC2F2F"/>
<path d="M154.498 135.964C154.2 135.668 153.852 135.323 153.553 135.027C153.653 134.879 153.603 134.829 153.454 134.829H153.553C153.454 134.731 153.354 134.632 153.255 134.533L153.304 134.583C153.205 134.336 153.006 134.287 152.757 134.287C152.708 134.237 152.608 134.188 152.558 134.139C152.658 133.547 151.912 133.3 152.011 132.511C158.626 135.668 163.351 140.602 167.231 146.867C164.943 146.621 163.003 146.127 161.014 146.127C160.467 146.127 160.467 145.585 160.317 145.19C159.472 143.118 158.577 141.095 157.383 139.22C157.184 138.875 156.985 138.48 156.488 138.53H156.537C156.537 138.135 156.488 137.79 155.99 137.79C155.99 137.395 155.99 137.05 155.443 137.05H155.493C155.393 136.951 155.294 136.852 155.244 136.754H155.294C155.194 136.655 155.095 136.556 155.045 136.507C155.045 136.31 154.946 136.112 154.747 136.014V136.112C154.697 135.915 154.647 135.866 154.498 135.964Z" fill="#DC2F2F"/>
<path d="M178.968 115.342C182.002 113.862 184.887 115.54 187.772 115.885C192.347 116.428 196.923 117.118 201.499 117.266C204.135 117.365 206.771 117.365 209.357 117.02C210.053 116.921 210.352 117.217 210.302 117.908C207.02 118.549 203.687 118.352 200.405 118.105C193.243 117.612 186.13 116.378 178.968 115.342Z" fill="#DC2F2F"/>
<path d="M175.288 173.36C175.934 173.064 176.382 173.508 176.929 173.705C179.714 174.988 182.301 176.567 185.185 177.652C187.523 178.491 189.861 178.688 192.198 177.8C192.447 177.702 192.745 177.751 193.044 177.702C192.894 177.85 192.696 177.998 192.546 178.146C190.855 178.984 189.115 178.886 187.324 178.738C186.628 178.59 185.931 178.491 185.235 178.343C182.848 178.047 180.908 176.567 178.769 175.63C178.72 175.531 178.67 175.482 178.57 175.383C178.521 175.136 178.322 175.038 178.073 175.136C177.377 174.199 176.133 174.1 175.288 173.36Z" fill="#DC2F2F"/>
<path d="M175.288 173.36C176.133 174.1 177.377 174.248 178.123 175.186C177.128 175.186 176.382 174.544 175.537 174.149C170.911 172.077 166.186 171.485 161.262 173.212C160.864 173.36 160.317 173.36 160.268 173.952C159.969 173.804 159.671 173.656 159.372 173.459C159.422 173.36 159.422 173.311 159.422 173.212C163.252 171.683 167.231 171.436 171.309 171.979C172.602 172.423 173.945 172.867 175.288 173.36Z" fill="white"/>
<path d="M196.575 174.199C196.575 173.952 196.525 173.705 196.575 173.508C197.818 170.548 196.973 167.835 195.68 165.17C195.481 164.726 195.133 164.332 195.232 163.789C197.122 166.206 197.818 168.92 197.57 171.929C197.222 172.719 197.222 173.607 196.575 174.199Z" fill="#DC2F2F"/>
<path d="M196.575 174.199C197.222 173.557 197.172 172.669 197.57 171.929C197.619 172.077 197.669 172.176 197.719 172.324C197.371 174.396 196.426 176.074 194.685 177.258C194.038 177.702 193.392 178.096 192.546 178.047C192.696 177.899 192.895 177.751 193.044 177.603H192.994C193.143 177.652 193.292 177.554 193.292 177.406V177.455C193.74 177.406 194.038 177.208 194.337 176.863C194.387 176.863 194.436 176.814 194.486 176.715C194.586 176.616 194.685 176.468 194.785 176.37C194.983 176.37 195.083 176.271 195.182 176.123C195.282 176.123 195.282 176.074 195.282 176.024C195.481 175.975 195.58 175.827 195.531 175.63V175.679C195.73 175.679 195.779 175.58 195.779 175.383C196.028 175.334 196.127 175.136 196.127 174.939H196.078C196.227 174.89 196.326 174.791 196.277 174.643C196.476 174.594 196.575 174.446 196.575 174.199Z" fill="white"/>
<path d="M194.038 162.062C193.541 162.013 193.243 161.816 193.392 161.224C193.69 161.47 193.939 161.717 194.038 162.062Z" fill="white"/>
<path d="M194.884 163.197C194.386 163.197 194.237 162.95 194.337 162.506C194.685 162.654 194.834 162.901 194.884 163.197Z" fill="white"/>
<path d="M195.282 163.789C194.934 163.74 194.784 163.592 194.934 163.197C195.133 163.345 195.232 163.542 195.282 163.789Z" fill="white"/>
<path d="M159.372 173.212C159.372 173.311 159.372 173.36 159.323 173.459C159.173 173.508 158.974 173.558 158.825 173.607C158.875 173.261 159.124 173.212 159.372 173.212Z" fill="#DC2F2F"/>
<path d="M194.386 162.506C194.088 162.506 194.038 162.309 194.038 162.062C194.237 162.112 194.337 162.309 194.386 162.506Z" fill="white"/>
<path d="M193.143 161.026C192.845 161.026 192.745 160.829 192.745 160.582C192.944 160.632 193.094 160.78 193.143 161.026Z" fill="white"/>
<path d="M199.46 240.209C199.36 240.357 199.31 240.505 199.211 240.702C199.31 240.554 199.36 240.357 199.46 240.209Z" fill="white"/>
<path d="M179.615 209.178C179.565 209.227 179.515 209.227 179.466 209.277C179.466 209.227 179.515 209.178 179.515 209.128C179.565 209.128 179.615 209.178 179.615 209.178Z" fill="white"/>
<path d="M199.211 240.702L199.161 240.752L199.211 240.702Z" fill="white"/>
<path d="M221.095 139.665L221.045 139.615V139.665H221.095Z" fill="white"/>
<path d="M177.626 142.625L177.576 142.575L177.626 142.625Z" fill="white"/>
<path d="M180.858 126.097C180.908 126.147 180.908 126.196 180.958 126.246C180.908 126.246 180.858 126.196 180.809 126.196C180.809 126.147 180.858 126.097 180.858 126.097Z" fill="white"/>
<path d="M193.342 161.273C193.143 161.273 193.094 161.174 193.094 161.026C193.193 161.076 193.292 161.174 193.342 161.273Z" fill="white"/>
<path d="M216.569 73.2102C215.723 76.713 215.077 80.2651 214.729 83.8172C214.53 86.0866 214.182 88.3067 213.634 90.4774C213.286 91.7601 212.789 92.9442 211.943 93.9802C210.402 95.8056 208.263 96.2003 206.174 95.7069C203.687 95.1149 201.35 95.8056 198.962 96.1016C194.287 96.6936 190.159 95.6576 187.075 91.9081C185.484 89.9347 184.738 87.616 184.39 85.1492C184.24 83.9652 184.091 82.7812 184.141 81.5971C184.141 81.0051 183.992 80.7584 183.345 81.0544C182.798 81.3011 182.251 81.3998 181.505 80.9558C182.649 80.1664 183.743 79.5251 184.489 78.4397C186.926 75.1343 185.732 70.0528 182.5 67.8327C181.555 67.1913 180.51 66.994 179.316 67.6353C177.824 68.4247 176.432 69.2141 175.536 70.6941C174.194 72.9142 174.492 75.1836 175.387 77.453C175.984 78.8837 176.68 80.3144 177.625 81.5971C178.123 82.2385 178.173 82.8798 178.023 83.6692C177.128 89.4414 173.597 92.9935 168.225 94.6216C164.197 95.8549 159.969 95.9536 156.09 93.7335C155.642 93.4869 155.194 93.4375 154.697 93.5362C153.354 93.7335 151.962 93.8322 150.619 93.4869C147.833 92.8455 146.242 90.5761 146.142 87.468C146.043 84.9519 146.341 82.4852 146.54 79.9691C146.739 77.9463 146.789 75.8743 145.993 73.8515C146.739 73.8515 146.739 74.2956 146.839 74.5916C147.137 75.9729 147.286 77.3543 147.336 78.7357C147.386 81.4985 147.336 84.2612 147.386 86.9746C147.386 88.4054 147.784 89.7374 148.48 90.9708C149.375 92.5988 150.967 93.1908 153.105 92.7962C153.553 92.6975 154.001 92.5495 154.448 92.5002C155.592 92.4015 156.04 91.8095 155.891 90.6748C155.841 90.1321 155.94 89.5894 156.189 89.096C157.83 85.8399 159.472 82.5838 160.317 78.9824C160.815 80.3638 160.417 81.6958 159.969 82.9785C159.372 84.8039 158.278 86.432 157.333 88.1587C155.841 90.9214 156.736 92.6975 159.72 93.7829C161.859 94.5722 163.998 94.5229 165.888 92.9935C167.429 91.7601 167.728 90.4774 166.733 88.7014C165.838 87.172 164.644 85.8399 163.65 84.4092C162.953 83.4719 162.207 82.5345 162.108 81.3011C162.406 81.2025 162.506 81.3011 162.605 81.4491C163.848 83.4225 165.291 85.1986 166.683 87.024C168.325 89.096 168.971 91.2174 167.181 93.7829C169.17 93.5855 170.712 93.0922 172.055 92.0561C174.243 90.3294 176.084 88.2573 176.929 85.5439C177.426 83.8172 177.526 82.2385 176.233 80.7091C174.89 79.1304 174.094 77.2557 173.696 75.1343C173.199 72.2235 174.393 69.5101 176.929 67.9807C177.078 67.882 177.228 67.7833 177.327 67.734C179.068 66.7966 180.709 65.7113 182.848 66.846C185.136 68.0794 186.976 69.6087 187.573 72.2235C188.319 75.4796 187.473 78.637 186.578 81.7945C185.384 86.0373 186.081 89.9347 189.413 93.0922C190.258 93.8815 191.253 94.3255 192.298 94.7202C192.845 94.9176 193.143 94.7696 192.944 94.1282C191.85 90.4774 193.342 87.468 195.481 84.6559C197.52 81.9918 198.813 79.0317 198.763 75.5783C198.714 74.1969 198.117 72.9635 197.918 71.6808C199.062 72.9635 199.41 74.5422 199.509 76.1703C199.808 79.3771 198.266 82.0411 196.724 84.7052C195.978 85.9386 195.232 87.172 194.536 88.4547C193.342 90.7734 193.491 92.5988 194.884 93.8815C196.326 95.2629 198.913 95.5589 200.902 94.5229C202.891 93.5362 203.737 91.6615 203.389 89.3921C203.041 86.8266 201.996 84.4092 201.2 81.9918C200.604 80.1664 200.405 78.341 200.504 76.417C200.554 75.3809 200.952 74.5422 201.648 73.8515C202.046 74.0489 201.897 74.2956 201.847 74.4929C201.001 77.749 201.549 80.9064 202.692 84.0145C203.588 86.3826 204.284 88.7507 204.234 91.3161C204.234 91.9575 204.135 92.5495 203.986 93.1415C203.687 94.4242 203.836 94.6709 205.179 94.6709C208.263 94.6216 210.402 93.7829 211.695 90.2801C213.137 86.432 213.535 82.2878 214.629 78.341C215.127 76.6143 215.723 74.9369 216.221 73.2102C216.37 73.1115 216.469 73.1609 216.569 73.2102Z" fill="white"/>
<path d="M211.894 104.044C211.745 102.762 210.252 101.479 208.661 100.936C205.13 99.7523 201.449 99.8017 197.769 99.5056C195.779 99.3576 194.436 100.591 194.237 102.564C194.038 104.39 194.735 105.475 196.426 106.215C199.808 107.745 203.439 107.893 207.069 108.09C207.517 108.09 207.965 108.139 208.412 108.09C210.501 107.942 212.142 106.067 211.894 104.044ZM205.677 106.363C202.394 106.61 199.211 105.722 196.028 105.08C195.182 104.932 195.033 103.847 194.983 103.008C194.934 102.071 195.282 101.331 196.177 100.887C197.172 100.394 198.167 100.443 199.211 100.443C202.096 100.542 204.831 101.232 207.616 101.824C208.263 101.972 208.561 102.367 208.611 103.058C208.76 104.735 207.567 106.215 205.677 106.363Z" fill="white"/>
<path d="M200.106 112.53C195.381 112.727 190.457 112.382 185.534 112.037C179.118 111.543 172.751 110.853 166.335 110.409C162.754 110.162 159.173 109.767 155.592 109.866C154.896 109.866 154.2 109.718 153.503 109.669C153.155 109.619 152.807 109.57 152.857 109.126C152.907 108.682 153.304 108.682 153.653 108.731C156.587 108.879 159.521 109.027 162.406 109.274C165.241 109.471 168.076 109.718 170.911 109.965C174.194 110.261 177.476 110.557 180.759 110.853C182.102 111.001 183.494 111.05 184.837 111.099C187.523 111.247 190.209 111.346 192.894 111.494C196.923 111.642 200.902 111.691 204.931 111.642C205.975 111.642 206.97 111.494 208.014 111.445C208.462 111.445 208.91 111.543 208.91 112.086C208.91 112.727 208.412 112.629 208.014 112.629C205.428 112.53 202.891 112.53 200.106 112.53Z" fill="white"/>
<path d="M190.557 100.936C189.761 99.6044 188.567 99.0123 187.125 98.815C184.489 98.519 181.803 98.1737 179.217 98.2723C178.272 98.2723 177.426 98.2723 176.631 98.2723C174.492 98.2723 172.851 100.196 173.199 102.318C173.448 103.897 174.194 104.686 175.835 104.933C176.979 105.13 178.123 105.229 179.267 105.426C181.952 105.919 184.738 105.475 187.423 105.87C188.766 106.067 189.761 105.278 190.457 104.291C191.154 103.255 191.253 102.071 190.557 100.936ZM183.842 104.439C182.997 104.489 182.201 104.439 181.654 104.439C179.466 104.489 177.576 104.193 175.686 103.995C174.343 103.847 174.144 102.86 173.945 101.923C173.696 100.936 174.094 100.147 174.989 99.6537C176.879 98.667 178.869 98.6177 180.908 98.815C182.748 98.963 184.588 99.3084 186.429 99.4564C187.224 99.5057 187.473 99.851 187.523 100.591C187.672 102.959 186.528 104.242 183.842 104.439Z" fill="white"/>
<path d="M167.181 98.7163C163.252 97.9763 159.323 97.9269 155.393 98.3216C153.901 98.4696 152.708 98.963 152.061 100.443C151.066 102.712 152.558 105.031 155.045 105.228C157.283 105.426 159.472 105.377 161.71 105.426H163.202C164.346 105.426 165.49 105.426 166.684 105.377C168.574 105.278 169.817 104.044 169.916 102.17C170.016 100.246 169.071 99.0616 167.181 98.7163ZM162.904 104.735C160.019 104.982 157.134 104.636 154.249 104.439C153.155 104.39 152.459 103.452 152.31 101.972C152.21 100.887 152.907 99.6536 153.951 99.3576C155.095 99.0123 156.289 98.8643 157.482 98.7656C159.372 98.6176 161.262 98.7163 163.152 98.7656C165.191 98.815 165.938 99.6043 165.938 101.627C165.938 103.65 164.943 104.538 162.904 104.735Z" fill="white"/>
<path d="M216.718 72.4698L216.668 72.3715H216.767L216.718 72.4698Z" fill="white"/>
<path d="M143.357 156.685C143.258 156.586 143.208 156.537 143.108 156.438C142.263 154.761 140.572 154.169 139.03 153.478C134.255 151.505 129.63 152.59 125.054 154.317C124.457 154.514 123.91 154.81 123.363 155.057C123.065 155.156 122.717 155.6 122.368 155.205C122.07 154.86 122.269 154.416 122.468 154.021C123.512 151.702 125.303 150.123 127.491 148.89C132.465 146.127 137.687 145.979 143.059 147.459C147.087 148.594 150.768 150.419 154.2 152.738C155.095 153.33 155.99 153.478 156.985 153.379C164.246 152.787 171.259 153.429 177.824 156.882C181.206 158.658 184.041 161.026 185.384 164.825C185.583 165.368 185.732 165.911 185.484 166.503C184.887 166.207 185.086 165.417 184.539 165.121C184.589 164.875 184.489 164.677 184.24 164.628L184.29 164.677C184.24 164.579 184.141 164.48 184.091 164.332C184.091 164.085 183.992 163.937 183.743 163.888L183.793 163.937C183.793 163.789 183.693 163.69 183.544 163.641C183.196 162.26 182.002 161.52 181.008 160.78C177.725 158.313 173.846 157.08 169.817 156.488C167.479 156.142 165.092 155.896 162.655 155.945C157.134 156.093 151.763 156.932 146.441 158.362C145.894 158.51 145.396 158.56 144.899 158.412C144.75 157.474 144.203 156.932 143.357 156.685Z" fill="#DC2F2F"/>
<path d="M160.118 165.072C157.432 165.269 154.846 166.207 152.31 166.947C146.49 168.624 140.721 170.548 134.703 171.584C128.934 172.571 123.164 172.719 117.594 170.548C117.196 170.4 116.798 170.252 116.45 170.104C116.251 170.005 116.002 169.857 115.604 169.66C116.45 169.413 117.047 169.709 117.643 169.808C124.209 170.647 130.475 169.364 136.692 167.391C142.561 165.516 148.331 163.345 154.2 161.52C158.228 160.237 162.356 159.349 166.634 159.448C172.701 159.596 178.023 161.717 182.499 165.763C183.494 166.651 183.246 167.835 181.853 168.575C179.764 167.292 177.775 165.96 175.487 165.072C170.314 163.049 165.241 163.049 160.118 165.072Z" fill="#DC2F2F"/>
<path d="M137.836 141.44C138.085 141.342 138.185 141.292 138.234 141.292C140.522 141.934 140.522 141.934 140.92 139.664C141.02 139.122 141.119 138.579 141.417 138.135C142.412 136.704 141.965 135.619 140.821 134.583C140.721 134.484 140.671 134.386 140.622 134.287C140.622 134.238 140.622 134.188 140.622 134.04C142.512 134.188 144.302 134.78 146.043 135.471C151.414 137.74 154.498 141.983 156.189 147.361C156.338 147.854 156.438 148.347 155.841 148.643C155.244 148.939 154.896 148.545 154.598 148.199C151.962 145.486 148.928 143.611 145.098 143.019C143.705 142.822 142.313 142.723 140.92 142.624C139.776 142.575 138.781 142.23 137.836 141.44Z" fill="#DC2F2F"/>
<path d="M155.443 137C155.99 137 155.99 137.346 155.99 137.74C155.692 137.592 155.493 137.346 155.443 137Z" fill="white"/>
<path d="M155.94 137.74C156.438 137.79 156.488 138.086 156.488 138.48C156.189 138.283 156.04 138.036 155.94 137.74Z" fill="white"/>
<path d="M152.708 134.238C152.956 134.238 153.155 134.336 153.255 134.534C152.956 134.632 152.857 134.435 152.708 134.238Z" fill="white"/>
<path d="M154.697 136.014C154.946 136.112 154.996 136.31 154.996 136.507C154.797 136.408 154.647 136.26 154.697 136.014Z" fill="white"/>
<path d="M155.244 136.704C155.344 136.803 155.443 136.902 155.493 137C155.294 137 155.244 136.902 155.244 136.704Z" fill="white"/>
<path d="M154.995 136.458C155.095 136.556 155.194 136.655 155.244 136.704C155.095 136.704 154.995 136.606 154.995 136.458Z" fill="white"/>
<path d="M154.498 135.964C154.647 135.865 154.697 135.915 154.697 136.064C154.647 136.064 154.548 136.014 154.498 135.964Z" fill="white"/>
<path d="M153.404 134.829C153.553 134.829 153.603 134.879 153.503 135.028C153.503 134.929 153.454 134.879 153.404 134.829Z" fill="white"/>
<path d="M153.205 134.533C153.304 134.632 153.404 134.731 153.503 134.829C153.304 134.829 153.205 134.731 153.205 134.533Z" fill="white"/>
<path d="M183.693 163.888C183.942 163.937 184.042 164.085 184.042 164.332C183.843 164.283 183.743 164.085 183.693 163.888Z" fill="white"/>
<path d="M184.24 164.628C184.489 164.726 184.539 164.874 184.539 165.121C184.29 165.022 184.24 164.825 184.24 164.628Z" fill="white"/>
<path d="M183.494 163.592C183.644 163.641 183.743 163.74 183.743 163.888C183.644 163.838 183.594 163.69 183.494 163.592Z" fill="white"/>
<path d="M178.123 175.136C178.371 175.087 178.57 175.136 178.62 175.383C178.371 175.383 178.222 175.334 178.123 175.136Z" fill="white"/>
<path d="M178.62 175.383C178.67 175.481 178.72 175.531 178.819 175.629C178.72 175.58 178.67 175.481 178.62 175.383Z" fill="white"/>
<path d="M175.288 173.311C173.945 172.867 172.602 172.423 171.259 171.979C172.751 171.979 174.144 172.324 175.288 173.311Z" fill="white"/>
<path d="M194.337 176.863C194.088 177.208 193.74 177.455 193.292 177.455C193.441 176.863 193.889 176.863 194.337 176.863Z" fill="white"/>
<path d="M196.575 174.199C196.575 174.445 196.525 174.593 196.277 174.692C196.227 174.445 196.326 174.297 196.575 174.199Z" fill="white"/>
<path d="M196.078 174.939C196.078 175.186 195.978 175.334 195.729 175.383C195.729 175.186 195.829 175.038 196.078 174.939Z" fill="white"/>
<path d="M195.53 175.679C195.53 175.876 195.431 175.975 195.282 176.074C195.331 175.926 195.431 175.778 195.53 175.679Z" fill="white"/>
<path d="M195.133 176.172C195.083 176.369 194.934 176.468 194.735 176.419C194.884 176.32 194.983 176.221 195.133 176.172Z" fill="white"/>
<path d="M196.277 174.692C196.277 174.84 196.227 174.988 196.078 174.988C196.127 174.889 196.177 174.791 196.277 174.692Z" fill="white"/>
<path d="M194.785 176.419C194.685 176.517 194.586 176.666 194.486 176.764C194.586 176.616 194.685 176.517 194.785 176.419Z" fill="white"/>
<path d="M193.342 177.455C193.292 177.603 193.193 177.702 193.044 177.652C193.143 177.603 193.243 177.554 193.342 177.455Z" fill="white"/>
<path d="M195.779 175.432C195.779 175.58 195.729 175.679 195.531 175.728C195.58 175.58 195.68 175.481 195.779 175.432Z" fill="white"/>
<path d="M199.211 100.443C202.096 100.542 204.831 101.232 207.616 101.824C208.263 101.972 208.561 102.367 208.611 103.058C208.76 104.735 207.517 106.215 205.627 106.363C202.344 106.61 199.161 105.722 195.978 105.08C195.133 104.932 194.983 103.847 194.934 103.008C194.884 102.071 195.232 101.331 196.127 100.887C197.172 100.443 198.166 100.443 199.211 100.443Z" fill="#DC2F2F"/>
<path d="M181.654 104.439C179.466 104.489 177.576 104.193 175.686 103.995C174.343 103.847 174.144 102.861 173.945 101.923C173.696 100.936 174.094 100.147 174.989 99.6537C176.879 98.667 178.869 98.6177 180.908 98.815C182.748 98.963 184.588 99.3084 186.429 99.4564C187.224 99.5057 187.473 99.8511 187.523 100.591C187.672 102.91 186.478 104.193 183.842 104.39C183.047 104.489 182.201 104.439 181.654 104.439Z" fill="#DC2F2F"/>
<path d="M165.937 101.627C165.937 103.65 164.943 104.538 162.904 104.686C160.019 104.933 157.134 104.587 154.249 104.39C153.155 104.341 152.459 103.403 152.31 101.923C152.21 100.838 152.907 99.6044 153.951 99.3084C155.095 99.0124 156.289 98.815 157.482 98.7164C159.372 98.5683 161.262 98.667 163.152 98.7164C165.191 98.815 165.987 99.6044 165.937 101.627Z" fill="#DC2F2F"/>
</g>
</g>
<defs>
<clipPath id="clip0_99_897">
<rect width="359" height="355" fill="white"/>
</clipPath>
<clipPath id="clip1_99_897">
<rect width="132" height="204" fill="white" transform="translate(107 48)"/>
</clipPath>
</defs>
</svg>
