<svg xmlns="http://www.w3.org/2000/svg" viewBox="0 0 374.93 370.79"><defs><style>.cls-1{fill:#d14a43;}</style></defs><g id="Слой_2" data-name="Слой 2"><g id="Слой_1-2" data-name="Слой 1"><path class="cls-1" d="M26.44,253.44c-3.31,3.91-6.31,7.44-9.09,10.74C-7.79,219.6-11.92,130.06,48.28,63.11,112.61-8.42,215.75-19.6,291.41,31.89c81.52,55.46,102.76,159,66.35,232.74-2.92-3.45-5.85-7-9.38-11.26,16.22-43.31,16.44-87.59-1.57-131.34-14-33.85-37-60.42-67.79-79.94C218.9,3.89,143.08,6.22,84.61,49.9,32.59,88.85-5.92,165.33,26.44,253.44Z"/><path class="cls-1" d="M357.84,297.79c-1.51.84-2.55,1.58-3.76,2.12-16.5,6.75-33.26,8.94-50.23,1.71-2.68-1.11-4.33-.67-6.45,1.35a162,162,0,0,1-36,26.2,148.73,148.73,0,0,1-34.57,13.27,143.88,143.88,0,0,1-14.82,3c-.63.13-1.31.2-1.94.3a171.44,171.44,0,0,1-30.44,1.58,150.24,150.24,0,0,1-18.41-1.82,146.06,146.06,0,0,1-37.29-11.12c-16.53-7.42-32-18-46.56-31.51-2.25-2.11-3.9-2.48-6.69-1.27-17.27,7.19-34.13,5.17-50.89-1.95a19.87,19.87,0,0,1-2.46-1.45c.07-.37.07-.74.14-1.11,9.3-2.18,18.61-4.5,27.92-6.51a282.21,282.21,0,0,1,32.48-5.24,6.38,6.38,0,0,1,.87-.07,221.36,221.36,0,0,1,22.14-1.14c3.83,0,7.63.06,11.46.27,1,0,2,.1,2.92.16,2.79.24,5.51.54,8.23.94a106.5,106.5,0,0,1,13.34,2.86,112.07,112.07,0,0,1,24.76,10.15c.84.47,1.95,1.51,2,2.35,0,.47.07.94.14,1.37v0c.94,7.59,6.48,11.49,12.87,14.34,10.81,4.81,23.65,2.09,30.9-6.31a15.12,15.12,0,0,0,3.56-7.19c.44-2.86,1.78-4.2,4.2-5.48s5.08-2.48,7.63-3.59a121.1,121.1,0,0,1,30.4-8.47,126.9,126.9,0,0,1,14.28-1.28,3.26,3.26,0,0,1,.54,0c2.95-.1,5.88-.13,8.8-.07,4.84,0,9.64.27,14.44.64,20.4,1.58,40.38,5.81,60.31,10.92,1.54.37,3.05.87,4.63,1.34C356.56,297.12,356.87,297.36,357.84,297.79Z"/><path class="cls-1" d="M248.8,257.17a110.35,110.35,0,0,0-13.2,3.2l3.6,6.18A129.77,129.77,0,0,1,253,264.4Zm0,0a110.35,110.35,0,0,0-13.2,3.2l3.6,6.18A129.77,129.77,0,0,1,253,264.4Zm0,0a110.35,110.35,0,0,0-13.2,3.2l3.6,6.18A129.77,129.77,0,0,1,253,264.4Zm3.13-.5c-1,.13-2.09.34-3.13.5L253,264.4c1.38-.14,2.75-.27,4.13-.34Zm-114,2.62a105.91,105.91,0,0,0-13.84-2.89l-5.24,7.46a118,118,0,0,1,14.54,1.91c1.35.27,2.72.54,4.07.88l3.73-6.42C140.09,259.93,139,259.59,137.91,259.29Zm114-2.62c-1,.13-2.09.34-3.13.5L253,264.4c1.38-.14,2.75-.27,4.13-.34Zm-114,2.62a105.91,105.91,0,0,0-13.84-2.89c-1.55-.23-3.13-.44-4.71-.64l-6.55,7.8q3,0,6,.3a118,118,0,0,1,14.54,1.91c1.35.27,2.72.54,4.07.88l3.73-6.42C140.09,259.93,139,259.59,137.91,259.29Zm114-2.62c-1,.13-2.09.34-3.13.5L253,264.4c1.38-.14,2.75-.27,4.13-.34Zm-114,2.62a105.91,105.91,0,0,0-13.84-2.89c-1.55-.23-3.13-.44-4.71-.64l-6.55,7.8q3,0,6,.3a118,118,0,0,1,14.54,1.91c1.35.27,2.72.54,4.07.88l3.73-6.42C140.09,259.93,139,259.59,137.91,259.29Zm114-2.62c-1,.13-2.09.34-3.13.5L253,264.4c1.38-.14,2.75-.27,4.13-.34Zm-114,2.62-4.54,6.48c1.35.27,2.72.54,4.07.88l3.73-6.42C140.09,259.93,139,259.59,137.91,259.29Zm114-2.62c-1,.13-2.09.34-3.13.5L253,264.4c1.38-.14,2.75-.27,4.13-.34Zm0,0c-1,.13-2.09.34-3.13.5L253,264.4c1.38-.14,2.75-.27,4.13-.34Zm0,0c-1,.13-2.09.34-3.13.5L253,264.4c1.38-.14,2.75-.27,4.13-.34Zm86.64,12.26C331.88,247,325.2,225,318.51,203.12a4.35,4.35,0,0,0-1.21-1.81c-2.69-1.95-5.37-3.73-8.83-6.08,3.66,14.64,7.12,28.62,10.65,42.8a5.16,5.16,0,0,1-1.35.06,22,22,0,0,1-2.55-.6c-15-4-30.17-6.28-45.69-5.31-1.81.13-3.63.3-5.44.5-3.36.41-6.65.88-9.91,1.45-.64.13-1.24.23-1.88.37a124.49,124.49,0,0,0-13.54,3.32l-1,.31a98.87,98.87,0,0,0-12.26,4.77c-.6.27-1.21.53-1.81.84a83.92,83.92,0,0,0-36.42,34.13,17.22,17.22,0,0,0-1.34-3c-1.51-2.49-3.16-4.91-4.87-7.19-.34-.44-.67-.84-1-1.24a73.44,73.44,0,0,0-9.37-10.08,75.5,75.5,0,0,0-8.5-6.62c-1.25-.84-2.49-1.65-3.8-2.42-2.45-1.48-4.94-2.82-7.46-4.06a13.79,13.79,0,0,0-1.34-.64,94.33,94.33,0,0,0-12.4-5,14.45,14.45,0,0,0-2-.67A98.87,98.87,0,0,0,121,233.56c-14.34-2.46-29.19-2.09-44.34.4-7,1.14-13.81,2.79-21,4.2,3.52-14.24,7-28.22,10.68-42.63-3,2.05-5.58,3.63-8,5.34a5.58,5.58,0,0,0-2,2.79q-7.52,24.74-15,49.38c-2.48,8-5,16.06-7.76,24.76,3-1,4.91-1.81,6.86-2.49,17.77-6.48,36.21-9.8,54.92-11.15,3.06-.23,6.15-.4,9.24-.54,2.76-.1,5.48-.13,8.23-.06q3,0,6,.3a118,118,0,0,1,14.54,1.91c1.35.27,2.72.54,4.07.88,1.54.37,3.05.74,4.6,1.17a72.6,72.6,0,0,1,8.13,2.76,79.16,79.16,0,0,1,20.16,11.79,100.07,100.07,0,0,1,11.86,11.12c2.85,3.06,5.94,3.22,9.17.67a21.8,21.8,0,0,0,2.72-2.55,81.07,81.07,0,0,1,27.81-19.69,86.22,86.22,0,0,1,14.28-4.7c1-.24,2-.47,3-.67A129.77,129.77,0,0,1,253,264.4c1.38-.14,2.75-.27,4.13-.34a146.35,146.35,0,0,1,15.66-.34c2.21.07,4.4.21,6.58.37a180.09,180.09,0,0,1,18.88,2.29c2.62.44,5.21.91,7.83,1.44,11.66,2.32,23,6,34.7,9.14C340.15,274.41,339.37,271.65,338.57,268.93ZM170.9,275.58A96,96,0,0,0,153.4,265a92,92,0,0,0-12.23-4.81c-1.08-.3-2.15-.64-3.26-.94a105.91,105.91,0,0,0-13.84-2.89c-1.55-.23-3.13-.44-4.71-.64A154.56,154.56,0,0,0,103,255a223.8,223.8,0,0,0-24.8,1.61c5.61-1.38,11.19-3,16.9-4.07,3.8-.7,7.56-1.24,11.32-1.61a93.26,93.26,0,0,1,17.27-.3c1.38.07,2.76.2,4.1.4a69.55,69.55,0,0,1,13.74,3.09c.87.27,1.75.57,2.62.91,1.18.44,2.32.91,3.49,1.41a70.86,70.86,0,0,1,8.23,4.23,74.62,74.62,0,0,1,21.2,18.82c.67.84,1.11,1.88,1.72,2.79A102.88,102.88,0,0,0,170.9,275.58Zm118.89-19.25a162.3,162.3,0,0,0-17.87-1.07c-1.68,0-3.36,0-5,.1a121.88,121.88,0,0,0-15,1.31c-1,.13-2.09.34-3.13.5a110.35,110.35,0,0,0-13.2,3.2,106.51,106.51,0,0,0-13.37,5.17,108,108,0,0,0-25.83,17,65.72,65.72,0,0,1,26.2-23.82,69,69,0,0,1,9.74-4,75.15,75.15,0,0,1,13.17-3.19c.84-.14,1.68-.27,2.55-.34a90.06,90.06,0,0,1,15.49-.6c1.55.06,3.13.16,4.67.3a112,112,0,0,1,20.06,3.66c2.89.77,5.84,1.68,8.76,2.72Q293.36,256.69,289.79,256.33Zm-37.86.34c-1,.13-2.09.34-3.13.5L253,264.4c1.38-.14,2.75-.27,4.13-.34Zm0,0c-1,.13-2.09.34-3.13.5L253,264.4c1.38-.14,2.75-.27,4.13-.34Zm0,0c-1,.13-2.09.34-3.13.5L253,264.4c1.38-.14,2.75-.27,4.13-.34Zm-114,2.62-4.54,6.48c1.35.27,2.72.54,4.07.88l3.73-6.42C140.09,259.93,139,259.59,137.91,259.29Zm114-2.62c-1,.13-2.09.34-3.13.5L253,264.4c1.38-.14,2.75-.27,4.13-.34Zm-114,2.62-4.54,6.48c1.35.27,2.72.54,4.07.88l3.73-6.42C140.09,259.93,139,259.59,137.91,259.29Zm114-2.62c-1,.13-2.09.34-3.13.5L253,264.4c1.38-.14,2.75-.27,4.13-.34Zm-114,2.62a105.91,105.91,0,0,0-13.84-2.89c-1.55-.23-3.13-.44-4.71-.64l-6.55,7.8q3,0,6,.3a118,118,0,0,1,14.54,1.91c1.35.27,2.72.54,4.07.88l3.73-6.42C140.09,259.93,139,259.59,137.91,259.29Zm114-2.62c-1,.13-2.09.34-3.13.5L253,264.4c1.38-.14,2.75-.27,4.13-.34Zm-114,2.62a105.91,105.91,0,0,0-13.84-2.89c-1.55-.23-3.13-.44-4.71-.64l-6.55,7.8q3,0,6,.3a118,118,0,0,1,14.54,1.91c1.35.27,2.72.54,4.07.88l3.73-6.42C140.09,259.93,139,259.59,137.91,259.29Zm114-2.62c-1,.13-2.09.34-3.13.5L253,264.4c1.38-.14,2.75-.27,4.13-.34Zm-3.13.5a110.35,110.35,0,0,0-13.2,3.2l3.6,6.18A129.77,129.77,0,0,1,253,264.4Zm0,0a110.35,110.35,0,0,0-13.2,3.2l3.6,6.18A129.77,129.77,0,0,1,253,264.4Z"/><path class="cls-1" d="M29.44,234.53C14,193.63,19.15,121.05,74.93,68.51,131.52,15.15,215.75,8,278.72,51.1c67.79,46.38,86.4,126.17,67.34,182.68-2.48-5.18-5.26-11-7.89-16.74a6.13,6.13,0,0,1-.07-3.3c5.7-32.65.6-63.79-14.34-93.14C301.92,77.67,267.69,49.3,220.4,38.79c-49-10.88-93.3.45-131.44,33.1C61.57,95.31,44.6,125.25,37.32,160.53a136.14,136.14,0,0,0-.75,51.41,11.57,11.57,0,0,1-1.35,7.81C32.74,224.62,31.16,230,29.44,234.53Z"/><path class="cls-1" d="M316.79,316.87a159.15,159.15,0,0,1-36.18,29.06,150.1,150.1,0,0,1-16.36,8.5,179.1,179.1,0,0,1-39.64,12.7,193,193,0,0,1-60.07,2.32,184.32,184.32,0,0,1-48.91-12.63,163,163,0,0,1-15.12-7.12,156.94,156.94,0,0,1-42.4-32.83c4.37-1.88,8.64-4,13.07-5.57,1-.37,3,.54,4,1.44a163.09,163.09,0,0,0,38.23,25.5c2.89,1.41,5.78,2.72,8.7,4a162.36,162.36,0,0,0,30.3,9.58,144.7,144.7,0,0,0,14.89,2.38c3.12.34,6.21.61,9.3.78a170.48,170.48,0,0,0,38.1-1.65,157.8,157.8,0,0,0,20.63-4.6,165.59,165.59,0,0,0,31.88-13.2,184.36,184.36,0,0,0,25.46-16.6c1.65-1.28,3.29-2.69,4.87-4.06s3.16-2.69,4.81-4.14C307.18,312.74,311.92,314.83,316.79,316.87Z"/><path class="cls-1" d="M300.06,271.32c-1.41-.07-2.82-.13-4.23-.17-2.09-.1-4.14-.16-6.15-.16-2.69-.07-5.38-.07-8,0-5.18.06-10.28.3-15.35.77-1.89.17-3.73.33-5.61.57-4.64.54-9.21,1.24-13.78,2.15a165,165,0,0,0-25.6,7.15c-4.23,1.55-8.43,3.26-12.63,5.21.3-1,.3-2.32.91-2.92a69.16,69.16,0,0,1,11.92-8.87,61.84,61.84,0,0,1,21.2-7.79,66.42,66.42,0,0,1,9.07-1c1.78-.07,3.53-.1,5.31-.13s3.56,0,5.31,0v0a159.6,159.6,0,0,1,16.8,1.25c2.85.37,5.74.8,8.63,1.31,2.59.43,5.21,1,7.83,1.54C297.14,270.62,298.58,271,300.06,271.32Z"/><path class="cls-1" d="M166.59,287.58c-9.91-4.06-17.37-7.05-24-9.27a108.68,108.68,0,0,0-12.9-3.63c-1.85-.37-3.7-.74-5.61-1-4.44-.71-9.21-1.21-14.78-1.58-2.42-.17-5-.3-7.8-.44l-5-.2c-.7,0-1.37,0-2.11-.07l-9.38-.3-8.23-.2c3.33-.6,6.65-1.24,10-1.88,3.49-.61,7-1.21,10.52-1.65,2.85-.33,5.74-.64,8.6-.87,2.58-.24,5.14-.4,7.72-.47a103.34,103.34,0,0,1,15.42.64c1.65.17,3.29.43,4.94.74.57.1,1.18.2,1.75.33a55.83,55.83,0,0,1,11,3.6,67.75,67.75,0,0,1,18.31,12.19C165.61,284.22,165.75,285.63,166.59,287.58Z"/><path class="cls-1" d="M201.19,295.91c-5,7.73-19.28,11.42-27.18.3C179.49,291,192.56,289.7,201.19,295.91Z"/><path class="cls-1" d="M122.14,342.2a162.36,162.36,0,0,0,30.3,9.58l-8,5.85c-4.1-6.86-10.08-4.51-16.06-3.2-4.2.91-8.43,1.65-12.73,2.39a163,163,0,0,1-15.12-7.12C107.56,347.08,114.75,344.69,122.14,342.2Z"/><path class="cls-1" d="M214.73,353.29a45.11,45.11,0,0,0,9.88,13.84,193,193,0,0,1-60.07,2.32,40.84,40.84,0,0,0,12.09-14.51A170.48,170.48,0,0,0,214.73,353.29Z"/><path class="cls-1" d="M266.5,341.06c4.7,1.62,9.4,3.26,14.11,4.87a150.1,150.1,0,0,1-16.36,8.5c-3.16-.6-6.32-1.11-9.51-1.54-2.25-.3-4.91,2.58-7.79,4.23l-11.59-8.43a165.59,165.59,0,0,0,31.88-13.2c.37,1.37.53,2.95,1,4.26Z"/><path class="cls-1" d="M174,296.21c5.48-5.17,18.55-6.51,27.18-.3C196.22,303.64,181.91,307.33,174,296.21Z"/><path class="cls-1" d="M221.31,281.63c-4.23,1.55-8.43,3.26-12.63,5.21.3-1,.3-2.32.91-2.92a69.16,69.16,0,0,1,11.92-8.87C221.41,277.7,221.31,280,221.31,281.63Z"/><path class="cls-1" d="M233.31,308.07c9.84,6.29,19,13.74,28.05,21.1a148.73,148.73,0,0,1-34.57,13.27c-5.07-3.66-10.21-7.39-15.35-11.12A33.11,33.11,0,0,0,212,345.4c-.63.13-1.31.2-1.94.3a171.44,171.44,0,0,1-30.44,1.58,45,45,0,0,0,1.51-16.13c-6.48,4.64-12.43,8.91-18.38,13.21-.5.36-1,.73-1.54,1.1a146.06,146.06,0,0,1-37.29-11.12c12-9.17,23.75-18.41,35.81-27.17a15.06,15.06,0,0,0,4-4.94c.94,7.59,6.48,11.49,12.87,14.34,10.81,4.81,23.65,2.09,30.9-6.31a15.12,15.12,0,0,0,3.56-7.19c.44-2.86,1.78-4.2,4.2-5.48s5.08-2.48,7.63-3.59A23.77,23.77,0,0,0,233.31,308.07Z"/><path class="cls-1" d="M123.45,285.46a106.5,106.5,0,0,1,13.34,2.86L126.61,306a66.89,66.89,0,0,1-8.2,6.85l-8.06-4.67Z"/><path class="cls-1" d="M135.65,267.69a55.83,55.83,0,0,1,11,3.6l-4.06,7a108.68,108.68,0,0,0-12.9-3.63l4.23-7.32C134.47,267.46,135.08,267.56,135.65,267.69Z"/><path class="cls-1" d="M77.83,285.3a6.38,6.38,0,0,1,.87-.07l-.5.4Z"/><path class="cls-1" d="M105.82,266.45l-4.34,5.17-5-.2c.31-.87.54-1.78.78-2.65-1,.8-1.89,1.68-2.89,2.58l-9.38-.3L86.7,269c3.49-.61,7-1.21,10.52-1.65C100.07,267,103,266.68,105.82,266.45Z"/><path class="cls-1" d="M112.3,284.36c1,0,2,.1,2.92.16a90.75,90.75,0,0,1-14.28,17.74l-8.6-6,8.5-12.16C104.67,284.05,108.47,284.15,112.3,284.36Z"/><path class="cls-1" d="M113.54,266a103.34,103.34,0,0,1,15.42.64l-4.9,7c-4.44-.71-9.21-1.21-14.78-1.58Z"/><path class="cls-1" d="M180.06,261c.34.4.67.8,1,1.24a3,3,0,0,0-.2.44C180.6,262.12,180.33,261.54,180.06,261Z"/><path class="cls-1" d="M221.51,189.74c-12.63,8.53-25.11,18.59-33.82,34.62-6.24-12.37-28.95-30.7-30.84-32.05a312.26,312.26,0,0,0,8-36.28c1.54-10.75,1.51-21.74,1.78-32.66,0-2.22-1.14-5.34-2.86-6.52-1.21-.87-4.33.51-6.38,1.42s-4.1,2.58-7.66,4.9c.64-9.64,1-17.87,1.88-26,.1-1.24,2.18-2.68,3.66-3.22a178.4,178.4,0,0,1,18.68-6.32A44.87,44.87,0,0,1,188.67,86c17.1,1.61,20.42,5.91,21.77,22.84,1.85,23.28,4.26,46.56,6.95,69.78a33.58,33.58,0,0,0,1.31,5.91v0C219.07,185.66,221.08,188.6,221.51,189.74Z"/><path class="cls-1" d="M260.69,272.33c-4.64.54-9.21,1.24-13.78,2.15l-4.2-7.22a66.42,66.42,0,0,1,9.07-1c1.78-.07,3.53-.1,5.31-.13Z"/><path class="cls-1" d="M281.35,308.14l-7.93,4.57a69.92,69.92,0,0,1-9-7.9l-11.15-19.28a126.9,126.9,0,0,1,14.28-1.28Z"/><path class="cls-1" d="M281.65,271c-5.18.06-10.28.3-15.35.77l-3.9-5.55a159.6,159.6,0,0,1,16.8,1.25Z"/><path class="cls-1" d="M299.32,296.25,291.05,302a97.68,97.68,0,0,1-14.17-17.88c4.84,0,9.64.27,14.44.64Z"/><path class="cls-1" d="M295.83,271.15c-2.09-.1-4.14-.16-6.15-.16l-1.85-2.22c2.59.43,5.21,1,7.83,1.54A7.36,7.36,0,0,0,295.83,271.15Z"/><path class="cls-1" d="M152,52.05c7.88,3.26,14.18,7.51,17.34,15.88,2.29,6.06,2.75,5.88,10.62,4.58-1.2-2.59-1.78-5.32-3.41-7.11-4-4.39-3.71-8.11.61-11.9a21.76,21.76,0,0,0,2.37-2.77c4.39-5.45,4.38-5.46,8.93.14a17.35,17.35,0,0,0,2,2.41c4.57,3.89,4.85,7.74.65,12.27-1.57,1.68-2,4.37-3.09,6.74,5.73,2.17,9,.78,10.44-4.19,2.15-7.54,7.92-11.51,14.34-14.84.94-.49,2.22-.34,3.34-.48,0,1.12.37,2.38,0,3.32-3.11,7.17-6.24,14.34-9.71,21.34A5.85,5.85,0,0,1,202,80c-12.34.21-24.69.17-37,0-1.35,0-3.49-.67-3.9-1.62-3.5-8.11-6.68-16.36-9.92-24.58C151,53.65,151.39,53.26,152,52.05Z"/><path class="cls-1" d="M296.44,190.69c2.55,8.4,5,16.5,7.73,25.36-4.51-.36-8.4-.84-12.3-1-17.57-1.27-34.27.47-49.85,6a106.06,106.06,0,0,0-31.82,17.88c-8.8,7.12-15,16.36-19.75,26.57-1,2.08-1.95,4.26-3.16,7-1.27-2.66-2.25-4.81-3.29-6.92a1.05,1.05,0,0,0-.17-.31,79,79,0,0,0-25.46-31s-.07-.07-.1-.07a82.61,82.61,0,0,0-11.12-6.86,1.23,1.23,0,0,0-.37-.2c-1.51-.8-3.06-1.54-4.64-2.25a.26.26,0,0,0-.17-.06c-2.18-1-4.4-1.92-6.68-2.73-.34-.13-.64-.26-1-.37-2.58-1-5.2-1.84-7.89-2.62a118.61,118.61,0,0,0-50.8-3.22c-1.57.17-3.15.07-5.57.23,2.72-8.56,5.34-16.59,8-25.06H63.6c10.95-15.69,21.63-30.87,32.28-46,.24.07.44.23.67.3-4.26,11.93-8.63,23.79-13.13,36.18,21.4-.3,41.59,3.16,60.43,12.7a101,101,0,0,1,13.64,8.2c1.88,1.34,3.7,2.75,5.48,4.23a95.13,95.13,0,0,1,24.42,30.87c8.7-16,19.59-27.85,32.22-36.38,1.78-1.21,3.63-2.38,5.51-3.46v0c18.85-11,41.15-15.52,65.61-16.36-4.34-12.06-8.64-24.16-12.9-36.18a2.32,2.32,0,0,0,.44-.31c10.75,15.19,21.39,30.34,32.45,46Z"/></g></g></svg>